<?xml version="1.0" standalone="no"?>
<!DOCTYPE svg PUBLIC "-//W3C//DTD SVG 1.1//EN" "http://www.w3.org/Graphics/SVG/1.1/DTD/svg11.dtd" >
<svg>
<metadata>
Created by FontForge 20110222 at Tue Aug 13 00:53:42 2013
 By Orthosie Webhosting
modified (aar, 2006) | Copyright 2005 Monotype Imaging, Inc. All rights reserved. Neo Sans is designed by Sebastian Lester.
</metadata>
<defs>
<font id="NeoSansCyrRegular" horiz-adv-x="1239" >
  <font-face 
    font-family="NeoSansCyrRegular"
    font-weight="400"
    font-stretch="normal"
    units-per-em="2048"
    panose-1="2 11 5 3 0 0 0 0 0 4"
    ascent="1638"
    descent="-410"
    x-height="1126"
    cap-height="1522"
    bbox="-72 -442 2241 1946"
    underline-thickness="117"
    underline-position="-42"
    unicode-range="U+0020-2219"
  />
<missing-glyph horiz-adv-x="2048" 
d="M256 0v1536h1536v-1536h-1536zM384 128h1280v1280h-1280v-1280z" />
    <glyph glyph-name=".notdef" horiz-adv-x="2048" 
d="M256 0v1536h1536v-1536h-1536zM384 128h1280v1280h-1280v-1280z" />
    <glyph glyph-name=".null" horiz-adv-x="0" 
 />
    <glyph glyph-name="nonmarkingreturn" horiz-adv-x="506" 
 />
    <glyph glyph-name="space" unicode=" " horiz-adv-x="506" 
 />
    <glyph glyph-name="exclam" unicode="!" horiz-adv-x="444" 
d="M315 1501l-16 -1065q0 -16 -11.5 -27.5t-27.5 -11.5h-74q-15 0 -27.5 12t-13.5 27l-14 1065q0 17 12.5 28t28.5 11h102q16 0 28.5 -11.5t12.5 -27.5zM311 39q0 -39 -39 -39h-98q-16 0 -27.5 11.5t-11.5 27.5v192q0 16 11.5 27.5t27.5 11.5h98q16 0 27.5 -11t11.5 -28
v-192z" />
    <glyph glyph-name="quotedbl" unicode="&#x22;" horiz-adv-x="741" 
d="M682 1518v-8t-2 -9l-119 -387q-6 -22 -14.5 -30.5t-24.5 -8.5h-96q-11 0 -14.5 5.5t-3.5 15.5v9t2 9l94 387q5 22 15 30.5t26 8.5h114q23 0 23 -22zM334 1518v-8t-2 -9l-119 -387q-6 -22 -14.5 -30.5t-24.5 -8.5h-96q-11 0 -15 5.5t-4 15.5v9t2 9l95 387q5 22 15 30.5
t26 8.5h114q23 0 23 -22z" />
    <glyph glyph-name="numbersign" unicode="#" horiz-adv-x="1352" 
d="M1249 1044l-4 -45q-2 -17 -13 -27.5t-28 -10.5h-198l-37 -414h200q16 0 24.5 -12t8.5 -27v-4l-4 -43q-2 -17 -13 -28t-28 -11h-201l-32 -383q-2 -16 -11 -27.5t-26 -11.5h-90q-16 0 -24.5 10.5t-8.5 24.5v4l33 383h-318l-33 -383q-2 -16 -11.5 -27.5t-24.5 -11.5h-93
q-14 0 -23 10.5t-9 24.5v4l32 383h-190q-16 0 -24.5 11.5t-8.5 27.5v4l4 43q2 17 13 28t28 11h191l37 414h-193q-15 0 -24 11.5t-9 26.5v5l4 45q2 17 13 27.5t28 10.5h191l35 396q2 15 12.5 27t26.5 12h92q14 0 22 -10.5t8 -24.5v-4l-34 -396h317l35 396q2 15 12 27t27 12
h90q15 0 23 -10.5t8 -24.5v-4l-35 -396h201q15 0 23.5 -11.5t8.5 -26.5v-5zM528 961l-36 -414h317l37 414h-318z" />
    <glyph glyph-name="dollar" unicode="$" 
d="M1081 395q0 -65 -17 -130t-59.5 -120t-115 -95.5t-182.5 -55.5v-193q0 -17 -12 -29t-29 -12h-97q-17 0 -29 12t-12 29v185q-91 2 -161.5 9.5t-130.5 18.5q-26 5 -32.5 12.5t-6.5 24.5v84q0 17 10 25t24 8h7q35 -3 79 -6t89.5 -6t89.5 -4.5t79 -1.5q92 0 152.5 18t96 50.5
t49.5 77.5t14 99q0 39 -12.5 70.5t-41 62.5t-75.5 65t-117 77l-199 121q-71 43 -123.5 85t-88 87.5t-53 97t-17.5 113.5q0 159 96 246.5t272 109.5v176q0 17 12 29t29 12h97q17 0 29 -12t12 -29v-170q41 -2 83.5 -4.5t82 -6.5t73.5 -8t60 -8q15 -3 24.5 -11t9.5 -23v-89
q0 -15 -9.5 -23.5t-24.5 -8.5h-5q-34 2 -76.5 5t-89 6t-94 5t-92.5 2q-79 0 -136 -10t-93.5 -33t-54 -61t-17.5 -94q0 -36 13 -66.5t40.5 -59t69.5 -58t100 -64.5l189 -113q89 -53 150 -102t99 -98.5t55 -103t17 -114.5z" />
    <glyph glyph-name="percent" unicode="%" horiz-adv-x="1626" 
d="M643 1016q0 -162 -70.5 -247t-203.5 -85q-134 0 -205.5 85t-71.5 247v190q0 166 72 248t205 82q274 0 274 -330v-190zM516 1016v190q0 215 -147 215q-150 0 -150 -215v-190q0 -215 150 -215q147 0 147 215zM1315 1522q16 0 16 -13q0 -9 -10 -26l-856 -1450
q-24 -41 -45 -41h-101q-20 0 -20 16q0 11 8 25l856 1450q24 39 47 39h105zM1534 317q0 -164 -71.5 -247.5t-202.5 -83.5q-134 0 -205.5 85t-71.5 246v191q0 162 71 247t206 85q133 0 203.5 -84.5t70.5 -247.5v-191zM1407 317v191q0 215 -147 215q-150 0 -150 -215v-191
q0 -215 150 -215q147 0 147 215z" />
    <glyph glyph-name="ampersand" unicode="&#x26;" horiz-adv-x="1389" 
d="M1120 240q185 -197 189 -202t4 -15q0 -23 -23 -23h-141q-13 0 -20 4t-38 38l-77 83q-164 -139 -404 -139q-228 0 -364.5 97t-136.5 277v17q0 125 68.5 215t225.5 188q-143 164 -185 249t-42 165v16q0 157 112 241.5t318 84.5q184 0 296 -87t112 -239v-16
q0 -120 -73.5 -207.5t-297.5 -236.5l371 -400q80 143 80 361v28q0 33 32 33h88q35 0 35 -33v-28q0 -279 -129 -471zM844 1194v16q0 189 -238 189q-262 0 -262 -189v-16q0 -65 32.5 -126t162.5 -204q190 116 247.5 173t57.5 157zM915 231l-407 437q-111 -68 -161 -128.5
t-50 -162.5v-17q0 -111 85 -172t228 -61q184 0 305 104z" />
    <glyph glyph-name="quotesingle" unicode="'" horiz-adv-x="393" 
d="M334 1518v-8t-2 -9l-119 -387q-6 -22 -14.5 -30.5t-24.5 -8.5h-96q-11 0 -15 5.5t-4 15.5v9t2 9l95 387q5 22 15 30.5t26 8.5h114q23 0 23 -22z" />
    <glyph glyph-name="parenleft" unicode="(" horiz-adv-x="625" 
d="M303 543q0 -546 264 -934q6 -9 6 -21q0 -16 -20 -16h-96q-21 0 -37 10t-79 108t-114 238.5t-77.5 297.5t-26.5 317v26q0 161 27 319t78.5 299.5t114.5 237.5t78.5 105.5t35.5 9.5h96q20 0 20 -16q0 -12 -6 -21q-264 -388 -264 -934v-26z" />
    <glyph glyph-name="parenright" unicode=")" horiz-adv-x="625" 
d="M530 543q0 -161 -26.5 -319t-78.5 -299.5t-115 -237.5t-78 -105.5t-35 -9.5h-97q-20 0 -20 16q0 12 6 21q264 388 264 934v26q0 546 -264 934q-6 9 -6 21q0 16 20 16h97q20 0 36 -10t79.5 -107.5t114 -238.5t77 -298t26.5 -317v-26z" />
    <glyph glyph-name="asterisk" unicode="*" horiz-adv-x="952" 
d="M537 1227q268 88 274 88q21 0 27 -21l18 -59q2 -4 2 -10q0 -22 -29 -31l-256 -80q159 -219 163.5 -225.5t4.5 -18.5q0 -14 -35 -39.5t-42 -25.5q-10 0 -17.5 5.5t-56.5 74.5l-113 157q-159 -221 -165 -229t-21 -8q-7 0 -43.5 25.5t-36.5 39.5q0 13 45 74l125 170l-186 59
q-79 24 -89 32.5t-10 19.5q0 3 11.5 39.5t17 43.5t18.5 7q6 0 273 -88v268q0 39 30 39h62q29 0 29 -39v-268z" />
    <glyph glyph-name="plus" unicode="+" 
d="M1085 760q0 -33 -41 -33h-352v-350q0 -41 -33 -41h-81q-33 0 -33 41v350h-350q-41 0 -41 33v82q0 32 41 32h350v353q0 41 33 41h81q33 0 33 -41v-353h352q41 0 41 -32v-82z" />
    <glyph glyph-name="comma" unicode="," horiz-adv-x="438" 
d="M319 264q27 0 27 -22q0 -6 -43 -116l-83 -208q-39 -99 -45.5 -109t-24.5 -10h-84q-25 0 -25 25q0 7 60.5 208t67.5 216.5t32 15.5h118z" />
    <glyph glyph-name="hyphen" unicode="-" horiz-adv-x="682" 
d="M584 559q0 -35 -39 -35h-408q-39 0 -39 35v80q0 37 39 37h408q39 0 39 -37v-80z" />
    <glyph glyph-name="period" unicode="." horiz-adv-x="438" 
d="M307 43q0 -17 -11 -29t-28 -12h-98q-15 0 -27 12t-12 29v190q0 16 11.5 27.5t27.5 11.5h98q16 0 27.5 -11t11.5 -28v-190z" />
    <glyph glyph-name="slash" unicode="/" horiz-adv-x="727" 
d="M653 1522q29 0 29 -29q0 -6 -2 -12l-463 -1440q-12 -41 -37 -41h-104q-29 0 -29 29q0 6 2 12l465 1440q12 41 35 41h104z" />
    <glyph glyph-name="zero" unicode="0" 
d="M1122 623q0 -637 -501 -637q-504 0 -504 637v276q0 637 504 637q501 0 501 -637v-276zM936 623v276q0 479 -315 479q-316 0 -316 -479v-276q0 -480 316 -480q315 0 315 480z" />
    <glyph glyph-name="one" unicode="1" 
d="M1024 0h-840q-41 0 -41 37v90q0 35 41 35h326v1167l-214 -90q-110 -46 -117 -48t-15 -2q-21 0 -21 21v105q0 10 4.5 16t55.5 28l292 134q62 29 78 29h84q16 0 27.5 -11.5t11.5 -27.5v-1321h328q41 0 41 -35v-90q0 -37 -41 -37z" />
    <glyph glyph-name="two" unicode="2" 
d="M328 162h690q41 0 41 -35v-90q0 -37 -41 -37h-813q-17 0 -29 11t-12 28v166q0 329 313 538q253 171 308 212.5t82.5 89.5t27.5 124q0 114 -72.5 162.5t-234.5 48.5q-75 0 -173 -10l-190 -20h-8q-33 0 -33 36v72q0 18 22 30.5t137 30t245 17.5q250 0 369.5 -89.5
t119.5 -277.5q0 -119 -58 -205.5t-202 -184.5l-203 -138q-158 -107 -222 -198.5t-64 -237.5v-43z" />
    <glyph glyph-name="three" unicode="3" 
d="M1067 424q0 -213 -132.5 -325.5t-377.5 -112.5q-113 0 -236 19.5t-136 33t-13 27.5v69q0 35 35 35h6q215 -29 344 -29q167 0 243.5 67.5t76.5 215.5v43q0 109 -62 179.5t-178 70.5h-373q-39 0 -39 37v71q0 39 39 39h373q118 0 179 64t61 180v29q0 130 -76 186.5
t-244 56.5q-61 0 -155 -10l-189 -20h-6q-35 0 -35 34v72q0 19 18 30t136.5 30.5t230.5 19.5q263 0 386.5 -98.5t123.5 -300.5v-29q0 -219 -195 -320q195 -97 195 -321v-43z" />
    <glyph glyph-name="four" unicode="4" 
d="M1161 442q0 -36 -39 -36h-178v-365q0 -41 -35 -41h-118q-35 0 -35 41v365h-592q-47 0 -65.5 17.5t-18.5 61.5v78q0 42 24 76l607 850q20 33 59 33h121q53 0 53 -45v-916h178q39 0 39 -37v-82zM758 561v701q0 12 -8 12h-2q-8 0 -17 -12l-473 -672q-6 -9 -6 -17
q0 -12 16 -12h490z" />
    <glyph glyph-name="five" unicode="5" 
d="M1081 463q0 -227 -136.5 -352t-385.5 -125q-138 0 -248 16t-130.5 27t-20.5 34v76q0 31 30 31h11q164 -29 358 -29q334 0 334 322v31q0 149 -97.5 211.5t-330.5 62.5h-246q-13 0 -23 10.5t-10 24.5v2l36 429q22 253 23 261t12.5 17.5t27.5 9.5h704q41 0 41 -35v-90
q0 -33 -41 -33h-588l-32 -442h96q325 0 470.5 -104t145.5 -324v-31z" />
    <glyph glyph-name="six" unicode="6" 
d="M1118 504q0 -251 -128 -384.5t-372 -133.5q-241 0 -368 147.5t-127 433.5v359q0 321 132.5 465.5t401.5 144.5q148 0 251.5 -16.5t126 -26.5t22.5 -31v-80q0 -35 -43 -35q-21 5 -120.5 19t-236.5 14q-172 0 -261 -83.5t-89 -370.5v-23q178 41 309 41q245 0 373.5 -108
t128.5 -320v-12zM934 504v12q0 140 -82 211.5t-236 71.5q-152 0 -309 -37v-195q0 -239 77 -334.5t234 -95.5q163 0 239.5 90.5t76.5 276.5z" />
    <glyph glyph-name="seven" unicode="7" 
d="M938 1522q154 0 154 -129q0 -50 -27 -107l-590 -1255q-15 -31 -45 -31h-123q-31 0 -31 31q0 9 7 22l618 1286q2 2 2 9q0 14 -14 14h-699q-40 0 -40 35v86q0 15 12 27t28 12h748z" />
    <glyph glyph-name="eight" unicode="8" 
d="M1128 424q0 -206 -136 -322t-361 -116h-21q-225 0 -361 116t-136 322v39q0 97 52 187.5t146 144.5q-194 101 -194 319v19q0 202 135 302.5t358 100.5h21q232 0 362.5 -104.5t130.5 -298.5v-19q0 -218 -194 -319q94 -54 146 -144.5t52 -187.5v-39zM944 1114v19
q0 122 -80.5 186.5t-232.5 64.5h-21q-152 0 -232.5 -64.5t-80.5 -186.5v-19q0 -105 64 -175.5t196 -70.5h127q125 0 192.5 67t67.5 179zM942 424v39q0 109 -68 183.5t-190 74.5h-127q-122 0 -190 -74.5t-68 -183.5v-39q0 -134 81 -208.5t230 -74.5h21q149 0 230 74.5
t81 208.5z" />
    <glyph glyph-name="nine" unicode="9" 
d="M1100 596q0 -313 -128.5 -461.5t-406.5 -148.5q-150 0 -253.5 16.5t-125.5 26.5t-22 30v80q0 36 43 36q21 -5 121 -19.5t235 -14.5q173 0 262.5 83.5t89.5 371.5v22q-186 -40 -309 -40q-246 0 -375 108t-129 320v12q0 250 128.5 384t371.5 134t370.5 -147.5t127.5 -434.5
v-358zM913 760q3 204 3 211q0 213 -71.5 313t-240.5 100q-164 0 -240.5 -90t-76.5 -276v-12q0 -153 89 -218t228 -65q152 0 309 37z" />
    <glyph glyph-name="colon" unicode=":" horiz-adv-x="449" 
d="M313 895q0 -17 -11.5 -28t-29.5 -11h-96q-16 0 -28.5 11.5t-12.5 27.5v190q0 16 12.5 28.5t28.5 12.5h96q16 0 28.5 -12t12.5 -29v-190zM313 39q0 -17 -11.5 -28t-29.5 -11h-96q-16 0 -28.5 11.5t-12.5 27.5v192q0 16 12 27.5t29 11.5h96q16 0 28.5 -11t12.5 -28v-192z
" />
    <glyph glyph-name="semicolon" unicode=";" horiz-adv-x="449" 
d="M313 895q0 -39 -39 -39h-100q-16 0 -27.5 11.5t-11.5 27.5v190q0 16 11.5 28.5t27.5 12.5h100q16 0 27.5 -12t11.5 -29v-190zM295 262q27 0 27 -22q0 -6 -44 -115l-83 -209q-39 -100 -45.5 -110.5t-24.5 -10.5h-82q-25 0 -25 27q0 7 61 208t68 216.5t31 15.5h117z" />
    <glyph glyph-name="less" unicode="&#x3c;" 
d="M987 307q0 -20 -24 -20h-119q-16 0 -30.5 5.5t-33.5 20.5l-493 418q-19 16 -28 34.5t-9 35.5t9 35.5t28 33.5l493 418q19 16 33.5 21.5t30.5 5.5h119q24 0 24 -21q0 -17 -20 -34l-537 -459l537 -459q11 -9 15.5 -18t4.5 -17z" />
    <glyph glyph-name="equal" unicode="=" 
d="M1055 987q0 -17 -12 -25t-29 -8h-789q-17 0 -29 8t-12 25v82q0 17 12 25t29 8h789q17 0 29 -8t12 -25v-82zM1055 535q0 -17 -12 -25t-29 -8h-789q-17 0 -29 8t-12 25v81q0 17 12 25t29 8h789q17 0 29 -8t12 -25v-81z" />
    <glyph glyph-name="greater" unicode="&#x3e;" 
d="M989 801q0 -17 -9 -35.5t-28 -34.5l-493 -418q-19 -15 -33.5 -20.5t-30.5 -5.5h-119q-24 0 -24 20q0 8 4.5 17t15.5 18l537 459l-537 459q-20 17 -20 34q0 21 24 21h119q16 0 30.5 -5.5t33.5 -21.5l493 -418q19 -15 28 -33.5t9 -35.5z" />
    <glyph glyph-name="question" unicode="?" horiz-adv-x="913" 
d="M791 1202q0 -88 -44.5 -163.5t-142.5 -186.5q-145 -165 -173 -205t-28 -110v-101q0 -16 -11.5 -27.5t-29.5 -11.5h-90q-15 0 -27 11.5t-12 27.5v101q0 79 17 132t50 95t163 186q69 76 98 129.5t29 122.5v25q0 78 -49 112.5t-160 34.5q-67 0 -138 -6l-139 -12h-6
q-30 0 -30 35v71q0 27 10.5 37.5t107.5 23.5t195 13q410 0 410 -309v-25zM406 39q0 -39 -39 -39h-99q-16 0 -28.5 11.5t-12.5 27.5v190q0 16 12.5 28.5t28.5 12.5h99q15 0 27 -12t12 -29v-190z" />
    <glyph glyph-name="at" unicode="@" horiz-adv-x="1571" 
d="M1491 750q0 -192 -49.5 -314t-143.5 -194q-96 -73 -234 -102t-319 -29q-76 0 -137 19t-103.5 55.5t-65.5 89t-23 120.5v19t2 18l22 240q16 158 111 241.5t262 83.5q66 0 134.5 -9t127.5 -21q20 -5 31.5 -13.5t11.5 -29.5v-9l-61 -641q96 14 154.5 54t91 102t43 143
t10.5 177q0 97 -31 183t-94 151t-157.5 103t-221.5 38q-134 0 -240.5 -37.5t-183 -106t-121.5 -164t-57 -212.5l-31 -312q-2 -17 -3 -33.5t-1 -31.5q0 -92 31.5 -172t95.5 -139t161 -92.5t228 -33.5q74 0 147.5 4.5t147.5 10.5h2q13 0 17 -8q2 -4 2 -7v-65q0 -16 -9 -21.5
t-24 -7.5q-40 -5 -116 -10.5t-169 -5.5q-147 0 -266.5 39.5t-203.5 112t-129.5 173.5t-45.5 224v31.5t2 31.5l31 320q13 139 69 254.5t150.5 199t226 130t295.5 46.5q105 0 193 -22.5t158.5 -63t123.5 -96.5t88 -122t52.5 -139.5t17.5 -149.5zM936 838q-32 5 -68 8.5
t-71 3.5q-91 0 -134 -44.5t-53 -137.5l-22 -234q-2 -9 -2 -18v-17q0 -71 39 -106t129 -35h43q23 0 44.5 0.5t43.5 3.5z" />
    <glyph glyph-name="A" unicode="A" horiz-adv-x="1296" 
d="M383 502l-131 -472q-4 -16 -16 -23t-21 -7h-121q-35 0 -35 33q0 7 2 14l379 1333q44 156 209 156q163 0 207 -154l379 -1335q2 -4 2 -14q0 -33 -35 -33h-121q-13 0 -22 8.5t-28 77.5l-118 416h-530zM874 664l-143 519q-44 157 -46 163t-7 13t-12 11t-17 4q-11 0 -19.5 -5
t-13.5 -13t-35 -117l-159 -575h452z" />
    <glyph glyph-name="B" unicode="B" horiz-adv-x="1262" 
d="M1159 420q0 -434 -598 -434q-138 0 -252.5 8.5t-131.5 28.5t-17 57v1364q0 27 10 44.5t29.5 25.5t130.5 15t221 7q600 0 600 -395v-33q0 -112 -56.5 -196t-162.5 -126q108 -38 167.5 -126.5t59.5 -204.5v-35zM965 1108v33q0 123 -90.5 180t-323.5 57q-31 0 -203 -6v-508
h316q301 0 301 244zM973 420v35q0 260 -309 260h-316v-563q191 -9 213 -9q226 0 319 66.5t93 210.5z" />
    <glyph glyph-name="C" unicode="C" horiz-adv-x="1116" 
d="M1044 53q0 -23 -20 -33.5t-114.5 -22t-245.5 -11.5q-250 0 -395.5 161t-145.5 471v285q0 312 144.5 472.5t396.5 160.5q100 0 226.5 -16t138 -22.5t11.5 -20.5v-105q0 -22 -24 -22h-6q-222 18 -344 18q-357 0 -357 -465v-285q0 -230 91.5 -347t265.5 -117q77 0 169 5
l169 11h8q32 0 32 -33v-84z" />
    <glyph glyph-name="D" unicode="D" horiz-adv-x="1313" 
d="M1196 623q0 -320 -163.5 -478.5t-457.5 -158.5q-112 0 -248.5 7.5t-151.5 23.5t-15 40v1407q0 23 14.5 39.5t154 24.5t246.5 8q303 0 462 -162t159 -475v-276zM1010 623v276q0 240 -106.5 358.5t-328.5 118.5q-129 0 -227 -6v-1220q57 -5 227 -5q435 0 435 478z" />
    <glyph glyph-name="E" unicode="E" horiz-adv-x="1128" 
d="M1016 25q0 -15 -10 -23.5t-130.5 -12t-279.5 -3.5q-226 0 -331 92.5t-105 288.5v788q0 200 108 290.5t328 90.5q20 0 208 -2.5t200 -13t12 -25.5v-102q0 -25 -23 -25h-395q-134 0 -193 -34.5t-59 -178.5v-285h629q17 0 29 -12t12 -29v-77q0 -17 -12 -29t-29 -12h-629
v-344q0 -123 48 -168t204 -45h395q23 0 23 -25v-104z" />
    <glyph glyph-name="F" unicode="F" horiz-adv-x="1128" 
d="M1016 752q0 -17 -12 -29t-29 -12h-629v-670q0 -17 -12 -29t-29 -12h-104q-17 0 -29 12t-12 29v1114q0 200 108 290.5t328 90.5q20 0 208 -2.5t200 -13t12 -25.5v-102q0 -25 -23 -25h-395q-134 0 -193 -34.5t-59 -178.5v-285h629q17 0 29 -12t12 -29v-77z" />
    <glyph glyph-name="G" unicode="G" horiz-adv-x="1253" 
d="M1094 61q0 -23 -16 -35t-139.5 -26t-289.5 -14q-234 0 -382 165.5t-148 471.5v274q0 314 147.5 476.5t401.5 162.5q167 0 281.5 -14t128.5 -21t14 -24v-103q0 -20 -27 -20h-8q-169 14 -389 14q-363 0 -363 -471v-274q0 -241 95 -356t249 -115q112 0 258 12v586
q0 41 37 41h111q15 0 27 -12.5t12 -28.5v-689z" />
    <glyph glyph-name="H" unicode="H" horiz-adv-x="1393" 
d="M1233 41q0 -17 -12 -29t-29 -12h-105q-16 0 -28 12t-12 29v680h-701v-680q0 -17 -12 -29t-29 -12h-104q-17 0 -29 12t-12 29v1440q0 17 12 29t29 12h104q17 0 29 -12t12 -29v-594h701v594q0 17 12 29t28 12h105q17 0 29 -12t12 -29v-1440z" />
    <glyph glyph-name="I" unicode="I" horiz-adv-x="547" 
d="M367 41q0 -16 -10.5 -28.5t-26.5 -12.5h-113q-15 0 -26 12t-11 29v1442q0 39 37 39h113q37 0 37 -39v-1442z" />
    <glyph glyph-name="J" unicode="J" horiz-adv-x="526" 
d="M367 -76q0 -152 -77 -222.5t-241 -70.5q-121 0 -121 39v76q0 35 41 35h80q72 0 101.5 27.5t29.5 115.5v1559q0 15 12 27t27 12h109q15 0 27 -12t12 -27v-1559z" />
    <glyph glyph-name="K" unicode="K" horiz-adv-x="1243" 
d="M528 782l617 -737q10 -10 10 -25q0 -20 -27 -20h-159q-29 0 -45 20l-578 703v-682q0 -16 -10.5 -28.5t-26.5 -12.5h-112q-16 0 -26.5 12t-10.5 29v1442q0 15 11 27t28 12h108q16 0 27.5 -11.5t11.5 -27.5v-662l590 682q18 19 41 19h147q29 0 29 -23q0 -11 -8 -20z" />
    <glyph glyph-name="L" unicode="L" horiz-adv-x="1053" 
d="M1016 33q0 -15 -10 -23.5t-127.5 -16t-282.5 -7.5q-247 0 -341.5 96.5t-94.5 284.5v1114q0 17 12 29t29 12h104q17 0 29 -12t12 -29v-1114q0 -123 48 -168t204 -45h395q23 0 23 -25v-96z" />
    <glyph glyph-name="M" unicode="M" horiz-adv-x="1559" 
d="M1401 41q0 -17 -12 -29t-29 -12h-100q-17 0 -29 12t-12 29v1214q0 7 -2 7q-3 0 -5 -5l-191 -395q-105 -218 -114.5 -233.5t-28 -26t-51.5 -10.5h-94q-34 0 -54 11.5t-38 47.5l-185 383q-108 224 -108.5 225.5t-1 2t-2.5 0.5t-2 -7v-1214q0 -17 -12 -29t-29 -12h-100
q-17 0 -29 12t-12 29v1421q0 25 17.5 42.5t41.5 17.5h133q49 0 66 -35l338 -703q10 -22 24 -22t25 22l338 703q16 35 65 35h133q25 0 42.5 -17.5t17.5 -42.5v-1421z" />
    <glyph glyph-name="N" unicode="N" horiz-adv-x="1393" 
d="M1233 59q0 -24 -17.5 -41.5t-41.5 -17.5h-127q-49 0 -66 33l-633 1202q-3 6 -6 6q-2 0 -2 -6v-1196q0 -16 -11 -27.5t-26 -11.5h-106q-37 0 -37 25v1439q0 24 17 41t42 17h113q41 0 56 -8.5t28 -32.5l633 -1202q2 0 2 6v1198q0 15 10.5 27t25.5 12h109q37 0 37 -39v-1424
z" />
    <glyph glyph-name="O" unicode="O" horiz-adv-x="1354" 
d="M1231 629q0 -314 -144 -478.5t-409 -164.5t-410 164.5t-145 478.5v264q0 326 150 484.5t405 158.5q265 0 409 -164.5t144 -478.5v-264zM1042 629v264q0 475 -364 475q-367 0 -367 -475v-264q0 -475 367 -475q364 0 364 475z" />
    <glyph glyph-name="P" unicode="P" horiz-adv-x="1214" 
d="M1122 1065q0 -459 -573 -459q-73 0 -205 10v-575q0 -16 -10.5 -28.5t-26.5 -12.5h-110q-16 0 -26.5 12t-10.5 29v1427q0 22 16 39t152.5 23t220.5 6q573 0 573 -444v-27zM936 1065v27q0 151 -91.5 218.5t-295.5 67.5q-100 0 -205 -8v-600q188 -8 205 -8q206 0 296.5 69.5
t90.5 233.5z" />
    <glyph glyph-name="Q" unicode="Q" horiz-adv-x="1354" 
d="M1231 629q0 -284 -119 -447.5t-346 -191.5v-88q0 -72 21 -95.5t106 -23.5h121q45 0 45 -33v-69q0 -50 -166 -50q-175 0 -241 63t-66 206v92q-226 29 -344.5 192t-118.5 445v264q0 326 150 484.5t405 158.5q265 0 409 -164.5t144 -478.5v-264zM1042 629v264
q0 475 -364 475q-367 0 -367 -475v-264q0 -475 367 -475q364 0 364 475z" />
    <glyph glyph-name="R" unicode="R" horiz-adv-x="1280" 
d="M821 668l373 -623q6 -9 6 -18q0 -27 -26 -27h-132q-17 0 -26 2t-15.5 9.5t-81.5 131.5l-296 494h-54q-66 0 -225 6v-602q0 -16 -10.5 -28.5t-26.5 -12.5h-110q-16 0 -26.5 12t-10.5 29v1434q0 33 25 40.5t150.5 14t233.5 6.5q574 0 574 -440v-15q0 -157 -83.5 -264.5
t-238.5 -148.5zM958 1081v15q0 149 -94.5 210.5t-294.5 61.5q-178 0 -225 -6v-561q178 -4 225 -4q213 0 301 67t88 217z" />
    <glyph glyph-name="S" unicode="S" horiz-adv-x="1126" 
d="M944 1356q-180 12 -352 12q-168 0 -234.5 -44t-66.5 -150q0 -70 50.5 -122.5t152.5 -113.5l208 -125q175 -104 248.5 -197.5t73.5 -220.5q0 -129 -57 -221.5t-169.5 -140t-279.5 -47.5q-132 0 -244 14.5t-123.5 22t-11.5 28.5v82q0 33 35 33h6q142 -12 338 -12
q159 0 235 56t76 185q0 74 -48.5 129t-196.5 146l-219 133q-137 84 -200 169.5t-63 201.5q0 362 490 362q96 0 226.5 -10t147.5 -20t17 -29v-88q0 -33 -35 -33h-4z" />
    <glyph glyph-name="T" unicode="T" horiz-adv-x="1208" 
d="M1137 1395q0 -33 -39 -33h-400v-1321q0 -16 -10.5 -28.5t-25.5 -12.5h-113q-15 0 -26 12t-11 29v1321h-399q-41 0 -41 33v90q0 15 12 26t29 11h985q39 0 39 -37v-90z" />
    <glyph glyph-name="U" unicode="U" horiz-adv-x="1356" 
d="M1202 553q0 -567 -524 -567t-524 567v930q0 16 11 27.5t28 11.5h110q16 0 27.5 -11.5t11.5 -27.5v-930q0 -207 76 -307.5t260 -100.5q176 0 256 94.5t80 313.5v930q0 16 11 27.5t28 11.5h110q16 0 27.5 -11.5t11.5 -27.5v-930z" />
    <glyph glyph-name="V" unicode="V" horiz-adv-x="1317" 
d="M1212 1522q35 0 35 -35q0 -5 -2 -12l-377 -1334q-44 -155 -209 -155q-164 0 -208 155l-379 1334q-2 4 -2 12q0 35 36 35h119q29 0 37 -31l356 -1305q13 -43 41 -43t39 43l359 1305q7 31 35 31h120z" />
    <glyph glyph-name="W" unicode="W" horiz-adv-x="1690" 
d="M1620 1487v-6l-227 -1385q-18 -104 -127 -104h-88q-42 0 -73.5 27.5t-43.5 74.5l-201 758q-4 18 -12 18h-4q-8 0 -13 -18l-202 -758q-28 -102 -117 -102h-86q-110 0 -127 104l-227 1385v6q0 35 34 35h119q30 0 35 -35l199 -1305q6 -30 10 -30q6 0 14 30l201 758
q21 82 96 82h131q75 0 97 -82l200 -758q7 -30 15 -30q5 0 10 30l199 1305q6 35 34 35h119q35 0 35 -35z" />
    <glyph glyph-name="X" unicode="X" horiz-adv-x="1323" 
d="M770 770l461 -719q6 -9 6 -22q0 -29 -33 -29h-129q-23 0 -33 17l-385 610l-257 -419q-117 -191 -127.5 -199.5t-24.5 -8.5h-121q-33 0 -33 31q0 10 6 20l455 723l-451 699q-6 9 -6 20q0 29 31 29h133q14 0 21.5 -4t50.5 -73l334 -527l224 367q132 217 136.5 223.5t13 10
t21.5 3.5h121q33 0 33 -31q0 -9 -7 -18z" />
    <glyph glyph-name="Y" unicode="Y" horiz-adv-x="1194" 
d="M504 623q-62 23 -111 135l-315 712q-6 13 -6 23q0 29 34 29h125q25 0 37 -29l283 -664q23 -53 47 -53t47 53l285 664q12 29 35 29h125q34 0 34 -29q0 -9 -6 -23l-317 -712q-49 -109 -111 -135v-582q0 -16 -11 -28.5t-26 -12.5h-112q-15 0 -26 12.5t-11 28.5v582z" />
    <glyph glyph-name="Z" unicode="Z" horiz-adv-x="1223" 
d="M1114 37q0 -15 -12 -26t-29 -11h-788q-99 0 -134.5 28.5t-35.5 110.5q0 74 30 119l734 1067q6 9 6 16q0 15 -21 15h-680q-41 0 -41 35v96q0 35 41 35h729q105 0 139.5 -31.5t34.5 -104.5t-32 -120l-731 -1067q-7 -10 -7 -19q0 -12 21 -12h735q41 0 41 -35v-96z" />
    <glyph glyph-name="bracketleft" unicode="[" horiz-adv-x="670" 
d="M621 -356q0 -17 -12 -29t-29 -12h-381q-16 0 -25.5 11.5t-9.5 27.5v1841q0 15 9.5 27t25.5 12h381q17 0 29 -12t12 -29v-68q0 -17 -12 -29t-29 -12h-234v-1620h234q17 0 29 -12t12 -29v-67v0z" />
    <glyph glyph-name="backslash" unicode="\" horiz-adv-x="727" 
d="M682 29q0 -11 -7.5 -20t-21.5 -9h-104q-16 0 -24 12.5t-13 28.5l-463 1440q-2 4 -2 12q0 11 7.5 20t21.5 9h104q16 0 23 -13t12 -28l465 -1440q2 -4 2 -12z" />
    <glyph glyph-name="bracketright" unicode="]" horiz-adv-x="670" 
d="M506 -358q0 -16 -9.5 -27.5t-25.5 -11.5h-381q-17 0 -29 12t-12 29v67q0 17 12 29t29 12h234v1620h-234q-17 0 -29 12t-12 29v68q0 17 12 29t29 12h381q16 0 25.5 -12t9.5 -27v-1841v0z" />
    <glyph glyph-name="asciicircum" unicode="^" 
d="M1034 1171q0 -8 -5.5 -13t-16.5 -5h-123q-22 0 -32 9t-26 28l-210 246l-211 -246q-16 -19 -26 -28t-32 -9h-123q-11 0 -16.5 5t-5.5 13q0 12 8 23l236 305q17 22 28 29.5t33 7.5h217q22 0 33.5 -7.5t28.5 -29.5l235 -305q8 -11 8 -23z" />
    <glyph glyph-name="underscore" unicode="_" horiz-adv-x="1012" 
d="M1075 -184q0 -33 -41 -33h-1054q-41 0 -41 33v51q0 33 41 33h1054q41 0 41 -33v-51z" />
    <glyph glyph-name="grave" unicode="`" horiz-adv-x="762" 
d="M498 1290q0 -14 -19 -14h-110q-17 0 -25 7.5t-22 23.5l-232 258q-8 8 -8 16q0 14 22 14h136q18 0 27.5 -6.5t23.5 -23.5l198 -254q5 -5 7 -10.5t2 -10.5z" />
    <glyph glyph-name="a" unicode="a" horiz-adv-x="1063" 
d="M924 41q0 -17 -12.5 -29t-28.5 -12h-95q-16 0 -28 12t-12 29v45q-171 -100 -316 -100q-161 0 -247.5 83.5t-86.5 247.5v25q0 171 113.5 251.5t380.5 80.5h151v82q0 127 -48.5 179t-170.5 52q-90 0 -167 -5l-146 -11h-10q-37 0 -37 33v71q0 22 16 31t117 22t227 13
q400 0 400 -385v-715zM743 215v330h-151q-171 0 -242 -40.5t-71 -160.5v-25q0 -97 42 -141.5t146 -44.5q127 0 276 82z" />
    <glyph glyph-name="b" unicode="b" horiz-adv-x="1108" 
d="M1006 492q0 -245 -114.5 -375.5t-332.5 -130.5q-143 0 -267.5 17t-138.5 27t-14 38v1433q0 39 37 39h105q15 0 26.5 -11t11.5 -28v-381q114 21 240 21q219 0 333 -128.5t114 -373.5v-147zM825 492v147q0 182 -64 263t-202 81q-159 0 -240 -14v-813q143 -13 240 -13
q139 0 202.5 81t63.5 268z" />
    <glyph glyph-name="c" unicode="c" horiz-adv-x="926" 
d="M836 53q0 -34 -22 -41t-108 -16.5t-167 -9.5q-204 0 -320.5 133t-116.5 364v160q0 232 116 365t321 133q101 0 187 -12t98 -21.5t12 -34.5v-74q0 -30 -35 -30h-8q-127 14 -254 14q-256 0 -256 -340v-160q0 -340 256 -340q73 0 133 5l121 10h8q35 0 35 -31v-74z" />
    <glyph glyph-name="d" unicode="d" horiz-adv-x="1108" 
d="M969 68q0 -27 -15 -38t-141 -27.5t-264 -16.5q-217 0 -332 131t-115 375v147q0 246 113.5 374t333.5 128q123 0 239 -21v381q0 16 11.5 27.5t27.5 11.5h105q37 0 37 -39v-1433zM788 156v813q-79 14 -239 14q-138 0 -202 -81t-64 -263v-147q0 -187 63.5 -268t202.5 -81
q96 0 239 13z" />
    <glyph glyph-name="e" unicode="e" horiz-adv-x="1114" 
d="M1008 551q0 -45 -39 -45h-686v-29q0 -173 67 -253.5t217 -80.5q60 0 127 3t125 8l113 12h10q33 0 33 -29v-69q0 -28 -16 -39t-137.5 -27t-254.5 -16q-222 0 -343.5 124.5t-121.5 366.5v185q0 222 119 350.5t336 128.5q216 0 333.5 -126.5t117.5 -352.5v-111zM825 643v19
q0 166 -63.5 243.5t-204.5 77.5q-274 0 -274 -321v-19h542z" />
    <glyph glyph-name="f" unicode="f" horiz-adv-x="780" 
d="M729 1446q0 -31 -37 -31h-98q-76 0 -100.5 -30t-24.5 -111v-148h215q39 0 39 -36v-80q0 -35 -39 -35h-215v-934q0 -16 -12 -28.5t-27 -12.5h-100q-17 0 -29 12.5t-12 28.5v934l-200 22q-17 2 -27.5 12.5t-10.5 24.5v56q0 36 39 36h199v148q0 157 71.5 221t214.5 64
q154 0 154 -46v-67z" />
    <glyph glyph-name="g" unicode="g" horiz-adv-x="1145" 
d="M1071 1028q0 -25 -11 -31t-99 -22q69 -73 69 -211v-16q0 -351 -455 -351q-140 0 -237 41q-51 -24 -51 -69q0 -49 63 -66q373 -95 461 -121.5t163 -87.5t75 -170v-16q0 -318 -467 -318q-232 0 -351.5 84t-119.5 242v18q0 158 129 261q-109 42 -109 165v2q0 98 84 148
q-94 87 -94 238v16q0 113 51 195t152.5 124.5t250.5 42.5h449q19 0 33 -13.5t14 -31.5v-53zM852 748v16q0 115 -68.5 167t-208.5 52q-138 0 -207 -51.5t-69 -167.5v-16q0 -209 276 -209q141 0 209 48t68 161zM868 -92v16q0 59 -52.5 90.5t-149.5 57.5l-279 71
q-100 -81 -100 -209v-18q0 -100 72 -143t223 -43q148 0 217 37t69 141z" />
    <glyph glyph-name="h" unicode="h" horiz-adv-x="1141" 
d="M1001 41q0 -17 -12 -29t-28 -12h-99q-17 0 -29 12t-12 29v674q0 137 -52 202.5t-167 65.5q-152 0 -283 -57v-885q0 -16 -12 -28.5t-28 -12.5h-101q-15 0 -27 12t-12 29v1458q0 17 11 29t28 12h103q16 0 27 -12t11 -29v-422q150 64 314 64q178 0 273 -108.5t95 -317.5
v-674z" />
    <glyph glyph-name="i" unicode="i" horiz-adv-x="506" 
d="M346 1348q0 -17 -12 -29t-29 -12h-104q-17 0 -29 12t-12 29v163q0 17 12 29t29 12h104q17 0 29 -12t12 -29v-163zM342 41q0 -17 -12 -29t-29 -12h-98q-17 0 -29 12t-12 29v1044q0 17 12 29t29 12h98q17 0 29 -12t12 -29v-1044z" />
    <glyph glyph-name="j" unicode="j" horiz-adv-x="506" 
d="M346 1346q0 -17 -12 -28t-29 -11h-104q-16 0 -28.5 11t-12.5 28v165q0 16 12 28.5t29 12.5h104q16 0 28.5 -12t12.5 -29v-165zM342 -131q0 -142 -57.5 -207t-198.5 -65q-78 0 -112.5 8t-34.5 33v75q0 29 43 29h84q60 0 78 25.5t18 101.5v1216q0 17 10.5 29t26.5 12h106
q37 0 37 -41v-1216z" />
    <glyph glyph-name="k" unicode="k" horiz-adv-x="1016" 
d="M483 594l455 -549q6 -6 6 -18q0 -27 -22 -27h-148q-19 0 -27.5 6.5t-139.5 168.5l-288 355v-489q0 -17 -12 -29t-28 -12h-99q-17 0 -29 12t-12 29v1458q0 17 12 29t29 12h99q16 0 28 -12t12 -29v-852l419 471q8 8 32 8h143q31 0 31 -22q0 -11 -4 -16z" />
    <glyph glyph-name="l" unicode="l" horiz-adv-x="500" 
d="M340 41q0 -16 -10.5 -28.5t-26.5 -12.5h-106q-16 0 -26.5 12t-10.5 29v1460q0 39 37 39h106q37 0 37 -39v-1460z" />
    <glyph glyph-name="m" unicode="m" horiz-adv-x="1634" 
d="M1495 41q0 -17 -12 -29t-29 -12h-98q-17 0 -29 12t-12 29v725q0 219 -187 219q-95 0 -239 -55q18 -68 18 -160v-729q0 -16 -10.5 -28.5t-26.5 -12.5h-108q-35 0 -35 41v729q0 113 -30.5 164t-127.5 51q-91 0 -250 -80v-864q0 -16 -10.5 -28.5t-25.5 -12.5h-109
q-35 0 -35 41v1044q0 18 11.5 29.5t27.5 11.5h103q16 0 27 -11.5t11 -29.5v-38q155 96 299 96q134 0 205 -84q179 84 340 84q332 0 332 -377v-725z" />
    <glyph glyph-name="n" unicode="n" horiz-adv-x="1141" 
d="M1001 41q0 -17 -12 -29t-28 -12h-99q-17 0 -29 12t-12 29v674q0 144 -49.5 207t-175.5 63q-117 0 -277 -80v-864q0 -16 -12 -28.5t-28 -12.5h-101q-15 0 -27 12t-12 29v1044q0 18 11.5 29.5t27.5 11.5h103q16 0 27 -11.5t11 -29.5v-38q164 94 326 94q356 0 356 -426v-674
z" />
    <glyph glyph-name="o" unicode="o" horiz-adv-x="1116" 
d="M1014 485q0 -234 -120 -366.5t-337 -132.5t-336 132t-119 367v156q0 231 117 365.5t338 134.5q217 0 337 -132.5t120 -367.5v-156zM834 485v156q0 342 -277 342q-274 0 -274 -342v-156q0 -342 274 -342q136 0 206.5 87.5t70.5 254.5z" />
    <glyph glyph-name="p" unicode="p" horiz-adv-x="1108" 
d="M1006 487q0 -246 -113.5 -373.5t-333.5 -127.5q-111 0 -240 22v-370q0 -16 -11 -27.5t-27 -11.5h-105q-37 0 -37 39v1409q0 26 16 37t147 34t257 23q217 0 332 -131t115 -375v-148zM825 487v148q0 184 -65 269t-201 85q-120 0 -240 -20v-811q119 -21 240 -21
q137 0 201.5 83.5t64.5 266.5z" />
    <glyph glyph-name="q" unicode="q" horiz-adv-x="1108" 
d="M969 -362q0 -39 -37 -39h-105q-15 0 -27 11t-12 28v370q-125 -22 -239 -22q-219 0 -333 128t-114 373v148q0 238 111.5 372t335.5 134q127 0 258 -23t146.5 -33.5t15.5 -37.5v-1409zM788 158v811q-116 20 -239 20q-137 0 -201.5 -84.5t-64.5 -269.5v-148
q0 -183 64.5 -266.5t201.5 -83.5q121 0 239 21z" />
    <glyph glyph-name="r" unicode="r" horiz-adv-x="700" 
d="M645 1020q0 -35 -43 -35q-141 0 -283 -86v-858q0 -16 -12 -28.5t-28 -12.5h-101q-15 0 -27 12t-12 29v1044q0 18 11.5 29.5t27.5 11.5h96q17 0 28 -11.5t11 -29.5v-43q140 99 289 99q43 0 43 -37v-84z" />
    <glyph glyph-name="s" unicode="s" horiz-adv-x="954" 
d="M791 971q-192 16 -318 16q-116 0 -153 -29t-37 -90q0 -41 29 -73.5t90 -68.5l225 -134q119 -71 172 -141.5t53 -167.5q0 -146 -98.5 -221.5t-284.5 -75.5q-120 0 -223 13t-123.5 25.5t-20.5 32.5v72q0 31 37 31h8q181 -23 322 -23q110 0 156.5 34.5t46.5 111.5
q0 50 -37.5 86.5t-99.5 72.5l-224 133q-209 124 -209 293q0 138 90 205.5t281 67.5q123 0 227.5 -13.5t117.5 -23.5t13 -31v-67q0 -35 -34 -35h-6z" />
    <glyph glyph-name="t" unicode="t" horiz-adv-x="788" 
d="M737 31q0 -28 -43.5 -36.5t-126.5 -8.5q-166 0 -222 63.5t-56 210.5v715l-201 23q-17 1 -27 11t-10 25v56q0 36 39 36h199v201q0 18 11 28.5t49.5 16.5t82.5 12h6q31 0 31 -34v-224h221q17 0 29 -12t12 -29v-69q0 -17 -12 -29t-29 -12h-221v-715q0 -81 23 -105t88 -24
h114q43 0 43 -29v-71z" />
    <glyph glyph-name="u" unicode="u" horiz-adv-x="1141" 
d="M1001 41q0 -17 -11 -29t-27 -12h-103q-16 0 -27.5 12t-11.5 29v39q-163 -94 -325 -94q-357 0 -357 426v673q0 17 12 29t29 12h99q16 0 28 -12t12 -29v-673q0 -145 49.5 -208t176.5 -63q116 0 276 80v864q0 16 12.5 28.5t28.5 12.5h101q15 0 26.5 -12t11.5 -29v-1044z" />
    <glyph glyph-name="v" unicode="v" horiz-adv-x="1085" 
d="M973 1126q33 0 33 -34q0 -8 -2 -15l-277 -975q-34 -116 -184 -116q-151 0 -185 116l-276 975q-2 6 -2 15q0 34 33 34h112q29 0 39 -39l236 -892q15 -60 43 -60q27 0 43 60l235 892q9 39 39 39h113z" />
    <glyph glyph-name="w" unicode="w" horiz-adv-x="1610" 
d="M1532 1085v-8l-199 -950q-19 -95 -48.5 -118t-123.5 -23q-93 0 -119.5 31t-48.5 116l-178 696q-4 15 -10 15q-7 0 -10 -15l-179 -696q-23 -91 -55.5 -119t-111.5 -28q-94 0 -123.5 23.5t-49.5 117.5l-198 950v8q0 16 11.5 28.5t27.5 12.5h110q29 0 35 -32l170 -934
q4 -25 17 -25q10 0 16 25l201 786q16 62 82 62h114q66 0 82 -62l201 -786q5 -25 16 -25q12 0 17 25l170 934q4 32 34 32h111q16 0 27.5 -12.5t11.5 -28.5z" />
    <glyph glyph-name="x" unicode="x" horiz-adv-x="1120" 
d="M664 586q358 -517 370.5 -531.5t12.5 -31.5q0 -23 -27 -23h-141q-13 0 -18.5 4t-98.5 142l-205 298l-256 -370q-41 -60 -46 -67t-26 -7h-123q-24 0 -24 20q0 13 6 21l373 532l-229 331q-121 173 -125.5 181.5t-4.5 16.5q0 24 31 24h133q16 0 24 -7t96 -138l181 -268
q263 386 273 399.5t32 13.5h119q27 0 27 -24q0 -12 -11 -28z" />
    <glyph glyph-name="y" unicode="y" horiz-adv-x="1094" 
d="M578 160l249 936q8 30 39 30h115q33 0 33 -34q0 -8 -2 -15l-338 -1179q-54 -186 -134 -245t-241 -59q-58 0 -115.5 8.5t-78.5 17t-21 26.5v75q0 33 39 33h6q23 0 91 -6q69 -6 91 -6q87 0 134 33.5t90 224.5h-29q-69 0 -100.5 37.5t-51.5 103.5l-272 936q-2 4 -2 15
q0 34 37 34h112q26 0 35 -32l242 -889q11 -45 39 -45h33z" />
    <glyph glyph-name="z" unicode="z" horiz-adv-x="987" 
d="M885 41q0 -17 -12 -29t-29 -12h-619q-59 0 -92 31.5t-33 81.5v39q0 74 47 133l529 657q8 12 8 19q0 14 -20 14h-498q-17 0 -29 12t-12 29v69q0 17 12 29t29 12h602q115 0 115 -100v-49q0 -54 -47 -113l-539 -674q-10 -10 -10 -22q0 -16 16 -16h541q17 0 29 -12.5
t12 -28.5v-70z" />
    <glyph glyph-name="braceleft" unicode="{" horiz-adv-x="678" 
d="M623 -356q0 -17 -12 -29t-29 -12h-105q-94 0 -154.5 13.5t-96 46t-49 87t-13.5 135.5v361q0 48 -5.5 84t-20 66t-38 55t-59.5 51v119q36 25 59.5 50t38 54.5t20 65.5t5.5 83v365q0 81 13.5 135.5t49 87.5t96 46.5t154.5 13.5h103q17 0 29 -12t12 -29v-68q0 -17 -12 -29
t-29 -12h-93q-45 0 -72.5 -5.5t-43 -20t-20.5 -40.5t-5 -67v-365q0 -54 -7 -99t-24 -83.5t-45 -71.5t-69 -61q40 -29 68 -61t45 -70.5t24.5 -83t7.5 -98.5v-361q0 -41 5 -66.5t20.5 -40.5t43 -20.5t72.5 -5.5h95q17 0 29 -12t12 -29v-67v0z" />
    <glyph glyph-name="bar" unicode="|" horiz-adv-x="510" 
d="M346 -358q0 -16 -10.5 -27.5t-26.5 -11.5h-106q-16 0 -27.5 11.5t-11.5 27.5v1841q0 15 11.5 27t27.5 12h106q16 0 26.5 -12t10.5 -27v-1841v0z" />
    <glyph glyph-name="braceright" unicode="}" horiz-adv-x="678" 
d="M637 502q-36 -26 -59.5 -51t-38 -55t-20 -66t-5.5 -84v-361q0 -81 -14 -135.5t-49 -87t-95.5 -46t-154.5 -13.5h-105q-17 0 -29 12t-12 29v67q0 17 12 29t29 12h94q45 0 73 5.5t43.5 20.5t20.5 40.5t5 66.5v361q0 54 7.5 98.5t24.5 83t44.5 70.5t68.5 61q-41 28 -69 61
t-45 71.5t-24 83.5t-7 99v365q0 41 -5 67t-20.5 40.5t-43.5 20t-73 5.5h-92q-17 0 -29 12t-12 29v68q0 17 12 29t29 12h103q94 0 154.5 -13.5t95.5 -46.5t49 -87.5t14 -135.5v-365q0 -47 5.5 -83t20 -65.5t38 -54.5t59.5 -50v-119v0z" />
    <glyph glyph-name="asciitilde" unicode="~" 
d="M1053 956q0 -64 -12 -113t-38.5 -82t-69.5 -50t-104 -17q-42 0 -81.5 16t-73.5 42l-150 118q-22 18 -37.5 30t-27.5 19.5t-22 11t-21 3.5q-29 0 -46 -8.5t-26 -24.5t-11.5 -38t-2.5 -50v-53q0 -17 -12 -29t-29 -12h-60q-17 0 -29 12t-12 29v53q0 133 59 199.5t169 66.5
q42 0 81.5 -15.5t71.5 -41.5l174 -139q19 -16 45 -28.5t41 -12.5q29 0 45.5 6.5t24.5 20t10 35t2 52.5v58q0 17 12 29t29 12h60q17 0 29 -12t12 -29v-58v0z" />
    <glyph glyph-name="brokenbar" unicode="&#xa6;" horiz-adv-x="510" 
d="M346 741q0 -15 -10.5 -28t-26.5 -13h-108q-16 0 -26.5 13t-10.5 28v711q0 16 10.5 27.5t26.5 11.5h108q16 0 26.5 -11.5t10.5 -27.5v-711zM346 -391q0 -16 -10.5 -28.5t-26.5 -12.5h-108q-16 0 -26.5 12.5t-10.5 28.5v710q0 16 10.5 27.5t26.5 11.5h108q16 0 26.5 -11.5
t10.5 -27.5v-710z" />
    <glyph glyph-name="section" unicode="&#xa7;" horiz-adv-x="1120" 
d="M1022 -35q0 -51 -9.5 -101t-32 -95.5t-60 -84t-93.5 -66.5t-133 -44t-178 -16q-108 0 -192 8.5t-152 19.5q-14 3 -26.5 13.5t-12.5 25.5v86q0 17 13 26t28 9h4q84 -8 166 -14t166 -6h6q91 0 150.5 17t94.5 48.5t48.5 75.5t13.5 98q0 41 -9.5 72.5t-34.5 61.5t-67.5 61
t-109.5 71l-229 138q-81 49 -134.5 93t-84.5 89t-43.5 94.5t-12.5 108.5q0 66 20.5 117t49.5 98q-32 34 -51 89t-19 118q0 84 26 151t84.5 113.5t151.5 71t228 24.5q43 0 96 -2.5t104 -6.5t93.5 -9t64.5 -9q16 -3 26.5 -13t10.5 -26v-88q0 -15 -10.5 -24.5t-26.5 -9.5h-2
q-90 3 -178 10.5t-178 7.5t-147.5 -11.5t-90 -34.5t-45 -59t-12.5 -85q0 -36 9.5 -64.5t32.5 -55.5t63 -55.5t102 -64.5l223 -131q91 -54 149.5 -102.5t91.5 -97.5t45.5 -100.5t12.5 -109.5q0 -59 -13.5 -116t-45.5 -107q32 -48 45.5 -99t13.5 -108zM834 395q0 42 -10 73.5
t-34 60t-64.5 57.5t-100.5 67l-185 113q-34 22 -74.5 46.5t-72.5 49.5q-5 -16 -9 -27.5t-6 -23t-3 -24.5t-1 -33q0 -73 46.5 -127t136.5 -107l225 -131q24 -14 41.5 -25t33 -20.5t30 -20t32.5 -22.5q6 17 9 27t4.5 18.5t1.5 19.5v29z" />
    <glyph glyph-name="afii10023" unicode="&#xa8;" horiz-adv-x="1128" 
d="M868 1698q0 -16 -12.5 -27.5t-28.5 -11.5h-79q-17 0 -29 11.5t-12 27.5v166q0 15 12.5 28t28.5 13h79q16 0 28.5 -13t12.5 -28v-166zM510 1698q0 -16 -12.5 -27.5t-28.5 -11.5h-80q-16 0 -28.5 11.5t-12.5 27.5v166q0 15 13 28t28 13h80q15 0 28 -13t13 -28v-166z
M1016 25q0 -15 -10 -23.5t-130.5 -12t-279.5 -3.5q-226 0 -331 92.5t-105 288.5v788q0 200 108 290.5t328 90.5q121 0 205 -2t140.5 -6t62 -7.5t9 -11t3.5 -14.5v-102q0 -25 -23 -25h-395q-134 0 -193 -34.5t-59 -178.5v-285h629q17 0 29 -12t12 -29v-77q0 -17 -12 -29
t-29 -12h-629v-344q0 -123 48 -168t204 -45h395q23 0 23 -25v-104z" />
    <glyph glyph-name="afii10023" unicode="&#x401;" horiz-adv-x="1128" 
d="M868 1698q0 -16 -12.5 -27.5t-28.5 -11.5h-79q-17 0 -29 11.5t-12 27.5v166q0 15 12.5 28t28.5 13h79q16 0 28.5 -13t12.5 -28v-166zM510 1698q0 -16 -12.5 -27.5t-28.5 -11.5h-80q-16 0 -28.5 11.5t-12.5 27.5v166q0 15 13 28t28 13h80q15 0 28 -13t13 -28v-166z
M1016 25q0 -15 -10 -23.5t-130.5 -12t-279.5 -3.5q-226 0 -331 92.5t-105 288.5v788q0 200 108 290.5t328 90.5q121 0 205 -2t140.5 -6t62 -7.5t9 -11t3.5 -14.5v-102q0 -25 -23 -25h-395q-134 0 -193 -34.5t-59 -178.5v-285h629q17 0 29 -12t12 -29v-77q0 -17 -12 -29
t-29 -12h-629v-344q0 -123 48 -168t204 -45h395q23 0 23 -25v-104z" />
    <glyph glyph-name="guillemotleft" unicode="&#xab;" horiz-adv-x="1257" 
d="M770 567l251 -261q119 -123 122.5 -129t3.5 -15q0 -19 -23 -19h-118q-27 0 -38.5 15.5t-182.5 182t-181 187.5t-10 39q0 15 6.5 31.5t57.5 67.5l259 259q56 57 65.5 61.5t23.5 4.5h118q23 0 23 -18q0 -14 -7 -21zM238 567l251 -261q118 -123 121.5 -129t3.5 -15
q0 -19 -22 -19h-119q-27 0 -38 15.5t-182 182t-181.5 187.5t-10.5 39q0 15 6.5 31.5t58.5 67.5l258 259q57 57 66 61.5t23 4.5h119q22 0 22 -18q0 -14 -6 -21z" />
    <glyph glyph-name="logicalnot" unicode="&#xac;" 
d="M1055 506q0 -17 -12 -29t-29 -12h-66q-17 0 -29 12t-12 29v448h-682q-17 0 -29 8t-12 25v82q0 17 12 25t29 8h795q15 0 25 -10t10 -25v-561v0z" />
    <glyph glyph-name="registered" unicode="&#xae;" horiz-adv-x="1225" 
d="M1165 991q0 -114 -43.5 -214.5t-118.5 -174.5t-175.5 -117t-215.5 -43q-114 0 -214.5 43t-175.5 117t-118 174.5t-43 214.5t43 214.5t118 175.5t175.5 118t214.5 43q115 0 215.5 -43t175.5 -118t118.5 -175.5t43.5 -214.5zM1081 991q0 97 -37 182t-101 149t-149 101
t-182 37t-181.5 -37t-147.5 -101t-99.5 -149t-36.5 -182t36.5 -181.5t99.5 -147.5t147.5 -99.5t181.5 -36.5t182 36.5t149 99.5t101 147.5t37 181.5zM870 678q0 -11 -5 -19t-19 -8h-58q-8 0 -14.5 5t-9.5 12l-166 262l-25 6h-81v-254q0 -11 -8.5 -21t-20.5 -10h-51
q-13 0 -20 10t-7 21v618q0 42 37 46q12 1 31 2.5t41 2t44.5 1t39.5 0.5q64 0 113.5 -10.5t84 -35t52.5 -64t18 -97.5v-8q0 -79 -36 -122.5t-101 -62.5l157 -256q4 -8 4 -18zM743 1145q0 61 -37.5 85.5t-121.5 24.5h-66h-29v-229q9 0 22.5 -0.5t27.5 -0.5t26.5 -0.5
t18.5 -0.5q86 0 122.5 25.5t36.5 87.5v8z" />
    <glyph glyph-name="degree" unicode="&#xb0;" horiz-adv-x="700" 
d="M643 1245q0 -60 -23 -113t-62.5 -92.5t-92.5 -62.5t-113 -23t-113 23t-93 62.5t-63.5 92.5t-23.5 113t23.5 113t63.5 92.5t93 62.5t113 23t113 -23t92.5 -62.5t62.5 -92.5t23 -113zM532 1245q0 37 -14 69.5t-38.5 57t-57.5 39t-70 14.5t-69.5 -14.5t-57 -39t-39 -57
t-14.5 -69.5t14.5 -69.5t39 -57t57 -39t69.5 -14.5t70 14.5t57.5 39t38.5 57t14 69.5z" />
    <glyph glyph-name="plusminus" unicode="&#xb1;" 
d="M1085 760q0 -17 -12 -25t-29 -8h-352v-350q0 -17 -8 -29t-25 -12h-81q-17 0 -25 12t-8 29v350h-350q-17 0 -29 8t-12 25v82q0 17 12 24.5t29 7.5h350v353q0 17 8 29t25 12h81q17 0 25 -12t8 -29v-353h352q17 0 29 -7.5t12 -24.5v-82zM1085 18q0 -17 -12 -24.5t-29 -7.5
h-849q-17 0 -29 7.5t-12 24.5v68q0 17 12 25t29 8h849q17 0 29 -8t12 -25v-68z" />
    <glyph glyph-name="paragraph" unicode="&#xb6;" horiz-adv-x="1274" 
d="M1141 -360q0 -16 -10 -27.5t-25 -11.5h-47q-16 0 -25.5 11.5t-9.5 27.5v1771h-119v-1771q0 -16 -9.5 -27.5t-25.5 -11.5h-47q-15 0 -25 11.5t-10 27.5v899h-213q-106 0 -194.5 30t-152.5 87.5t-100 142.5t-36 196v70q0 111 36 196t100 143t152.5 88t194.5 30h533
q19 0 26 -10.5t7 -28.5v-1843v0z" />
    <glyph glyph-name="afii10071" unicode="&#xb8;" horiz-adv-x="1114" 
d="M825 1352q0 -16 -12.5 -27.5t-28.5 -11.5h-79q-17 0 -29 11.5t-12 27.5v166q0 15 12.5 28t28.5 13h79q16 0 28.5 -13t12.5 -28v-166zM467 1352q0 -17 -12.5 -28t-28.5 -11h-80q-16 0 -28.5 11.5t-12.5 27.5v166q0 15 13 28t28 13h80q15 0 28 -13t13 -28v-166zM1008 551
q0 -45 -39 -45h-686v-29q0 -173 67 -253.5t217 -80.5q149 0 260 12t116 12q32 0 32 -30v-69q0 -28 -16 -39t-137.5 -27t-254.5 -16q-222 0 -343.5 124.5t-121.5 366.5v185q0 222 119 350.5t336 128.5q216 0 333.5 -126.5t117.5 -352.5v-111zM825 643v19q0 166 -63.5 243.5
t-204.5 77.5q-274 0 -274 -321v-19h542z" />
    <glyph glyph-name="afii10071" unicode="&#x451;" horiz-adv-x="1114" 
d="M825 1352q0 -16 -12.5 -27.5t-28.5 -11.5h-79q-17 0 -29 11.5t-12 27.5v166q0 15 12.5 28t28.5 13h79q16 0 28.5 -13t12.5 -28v-166zM467 1352q0 -17 -12.5 -28t-28.5 -11h-80q-16 0 -28.5 11.5t-12.5 27.5v166q0 15 13 28t28 13h80q15 0 28 -13t13 -28v-166zM1008 551
q0 -45 -39 -45h-686v-29q0 -173 67 -253.5t217 -80.5q149 0 260 12t116 12q32 0 32 -30v-69q0 -28 -16 -39t-137.5 -27t-254.5 -16q-222 0 -343.5 124.5t-121.5 366.5v185q0 222 119 350.5t336 128.5q216 0 333.5 -126.5t117.5 -352.5v-111zM825 643v19q0 166 -63.5 243.5
t-204.5 77.5q-274 0 -274 -321v-19h542z" />
    <glyph glyph-name="afii61352" unicode="&#xb9;" horiz-adv-x="2400" 
d="M1233 59q0 -24 -17.5 -41.5t-41.5 -17.5h-127q-49 0 -66 33l-641 1214v-1208q0 -16 -11 -27.5t-26 -11.5h-106q-37 0 -37 25v1439q0 24 17 41t42 17h113q41 0 56 -8.5t28 -32.5l635 -1209v1211q0 15 10.5 27t25.5 12h109q37 0 37 -39v-1424zM2241 834
q0 -202 -102.5 -319.5t-295.5 -117.5q-189 0 -293 116t-104 321v133q0 205 104.5 321.5t292.5 116.5q189 0 293.5 -116.5t104.5 -321.5v-133zM2064 834v133q0 284 -221 284t-221 -284v-133q0 -285 221 -285t221 285zM2241 174q0 -17 -12.5 -29t-28.5 -12h-713q-17 0 -29 12
t-12 29v70q0 17 12 29t29 12h713q16 0 28.5 -12t12.5 -29v-70z" />
    <glyph glyph-name="afii61352" unicode="&#x2116;" horiz-adv-x="2400" 
d="M1233 59q0 -24 -17.5 -41.5t-41.5 -17.5h-127q-49 0 -66 33l-641 1214v-1208q0 -16 -11 -27.5t-26 -11.5h-106q-37 0 -37 25v1439q0 24 17 41t42 17h113q41 0 56 -8.5t28 -32.5l635 -1209v1211q0 15 10.5 27t25.5 12h109q37 0 37 -39v-1424zM2241 834
q0 -202 -102.5 -319.5t-295.5 -117.5q-189 0 -293 116t-104 321v133q0 205 104.5 321.5t292.5 116.5q189 0 293.5 -116.5t104.5 -321.5v-133zM2064 834v133q0 284 -221 284t-221 -284v-133q0 -285 221 -285t221 285zM2241 174q0 -17 -12.5 -29t-28.5 -12h-713q-17 0 -29 12
t-12 29v70q0 17 12 29t29 12h713q16 0 28.5 -12t12.5 -29v-70z" />
    <glyph glyph-name="guillemotright" unicode="&#xbb;" horiz-adv-x="1257" 
d="M1020 567l-251 261q-119 123 -122.5 129.5t-3.5 15.5q0 18 23 18h118q27 0 38.5 -15.5t182.5 -181.5t181 -187t10 -40q0 -14 -6.5 -31t-57.5 -68l-259 -258q-57 -57 -66 -62t-23 -5h-118q-23 0 -23 19q0 14 7 21zM487 567l-251 261q-118 123 -121.5 129.5t-3.5 15.5
q0 18 22 18h119q27 0 38 -15.5t182 -181.5t181.5 -187t10.5 -40q0 -14 -6.5 -31t-58.5 -68l-258 -258q-57 -57 -66 -62t-23 -5h-119q-22 0 -22 19q0 14 6 21z" />
    <glyph glyph-name="afii10017" unicode="&#xc0;" horiz-adv-x="1296" 
d="M383 502l-131 -472q-4 -16 -16 -23t-21 -7h-121q-35 0 -35 33q0 7 2 14l379 1333q44 156 209 156q163 0 207 -154l379 -1335q2 -4 2 -14q0 -33 -35 -33h-121q-13 0 -22 8.5t-28 77.5l-118 416h-530zM874 664l-143 519q-44 157 -46 163t-7 13t-12 11t-17 4q-11 0 -19.5 -5
t-13.5 -13t-35 -117l-159 -575h452z" />
    <glyph glyph-name="afii10017" unicode="&#x410;" horiz-adv-x="1296" 
d="M383 502l-131 -472q-4 -16 -16 -23t-21 -7h-121q-35 0 -35 33q0 7 2 14l379 1333q44 156 209 156q163 0 207 -154l379 -1335q2 -4 2 -14q0 -33 -35 -33h-121q-13 0 -22 8.5t-28 77.5l-118 416h-530zM874 664l-143 519q-44 157 -46 163t-7 13t-12 11t-17 4q-11 0 -19.5 -5
t-13.5 -13t-35 -117l-159 -575h452z" />
    <glyph glyph-name="afii10018" unicode="&#xc1;" horiz-adv-x="1262" 
d="M1159 420q0 -434 -598 -434q-138 0 -252.5 8.5t-131.5 28.5t-17 57v1403q0 39 37 39h782q17 0 29 -12t12 -29v-84q0 -17 -12 -29t-29 -12h-633v-473q122 8 215 8q598 0 598 -436v-35zM973 420v37q0 143 -93 209.5t-319 66.5q-79 0 -215 -8v-573q192 -9 215 -9
q226 0 319 66.5t93 210.5z" />
    <glyph glyph-name="afii10018" unicode="&#x411;" horiz-adv-x="1262" 
d="M1159 420q0 -434 -598 -434q-138 0 -252.5 8.5t-131.5 28.5t-17 57v1403q0 39 37 39h782q17 0 29 -12t12 -29v-84q0 -17 -12 -29t-29 -12h-633v-473q122 8 215 8q598 0 598 -436v-35zM973 420v37q0 143 -93 209.5t-319 66.5q-79 0 -215 -8v-573q192 -9 215 -9
q226 0 319 66.5t93 210.5z" />
    <glyph glyph-name="afii10019" unicode="&#xc2;" horiz-adv-x="1262" 
d="M1159 420q0 -434 -598 -434q-138 0 -252.5 8.5t-131.5 28.5t-17 57v1364q0 27 10 44.5t29.5 25.5t130.5 15t221 7q600 0 600 -395v-33q0 -112 -56.5 -196t-162.5 -126q108 -38 167.5 -126.5t59.5 -204.5v-35zM965 1108v33q0 123 -90.5 180t-323.5 57q-31 0 -203 -6v-508
h316q301 0 301 244zM973 420v35q0 260 -309 260h-316v-563q191 -9 213 -9q226 0 319 66.5t93 210.5z" />
    <glyph glyph-name="afii10019" unicode="&#x412;" horiz-adv-x="1262" 
d="M1159 420q0 -434 -598 -434q-138 0 -252.5 8.5t-131.5 28.5t-17 57v1364q0 27 10 44.5t29.5 25.5t130.5 15t221 7q600 0 600 -395v-33q0 -112 -56.5 -196t-162.5 -126q108 -38 167.5 -126.5t59.5 -204.5v-35zM965 1108v33q0 123 -90.5 180t-323.5 57q-31 0 -203 -6v-508
h316q301 0 301 244zM973 420v35q0 260 -309 260h-316v-563q191 -9 213 -9q226 0 319 66.5t93 210.5z" />
    <glyph glyph-name="afii10020" unicode="&#xc3;" horiz-adv-x="1098" 
d="M1016 1393q0 -25 -23 -25h-395q-134 0 -193 -34.5t-59 -178.5v-1114q0 -17 -12 -29t-29 -12h-104q-17 0 -29 12t-12 29v1114q0 200 108 290.5t328 90.5q20 0 208 -2.5t200 -13t12 -25.5v-102z" />
    <glyph glyph-name="afii10020" unicode="&#x413;" horiz-adv-x="1098" 
d="M1016 1393q0 -25 -23 -25h-395q-134 0 -193 -34.5t-59 -178.5v-1114q0 -17 -12 -29t-29 -12h-104q-17 0 -29 12t-12 29v1114q0 200 108 290.5t328 90.5q20 0 208 -2.5t200 -13t12 -25.5v-102z" />
    <glyph glyph-name="afii10021" unicode="&#xc4;" horiz-adv-x="1403" 
d="M88 166h64l346 1214q43 156 209 156q163 0 206 -154l344 -1216h58q37 0 37 -39v-332q0 -16 -10.5 -28.5t-26.5 -12.5h-113q-15 0 -26 12t-11 29v205h-927v-205q0 -16 -10.5 -28.5t-26.5 -12.5h-113q-15 0 -26 12t-11 29v332q0 39 37 39zM666 1337l-320 -1171h721
l-322 1171q-10 37 -38 37q-31 0 -41 -37z" />
    <glyph glyph-name="afii10021" unicode="&#x414;" horiz-adv-x="1403" 
d="M88 166h64l346 1214q43 156 209 156q163 0 206 -154l344 -1216h58q37 0 37 -39v-332q0 -16 -10.5 -28.5t-26.5 -12.5h-113q-15 0 -26 12t-11 29v205h-927v-205q0 -16 -10.5 -28.5t-26.5 -12.5h-113q-15 0 -26 12t-11 29v332q0 39 37 39zM666 1337l-320 -1171h721
l-322 1171q-10 37 -38 37q-31 0 -41 -37z" />
    <glyph glyph-name="afii10022" unicode="&#xc5;" horiz-adv-x="1128" 
d="M1016 25q0 -15 -10 -23.5t-130.5 -12t-279.5 -3.5q-226 0 -331 92.5t-105 288.5v788q0 200 108 290.5t328 90.5q121 0 205 -2t140.5 -6t62 -7.5t9 -11t3.5 -14.5v-102q0 -25 -23 -25h-395q-134 0 -193 -34.5t-59 -178.5v-285h629q17 0 29 -12t12 -29v-77q0 -17 -12 -29
t-29 -12h-629v-344q0 -123 48 -168t204 -45h395q23 0 23 -25v-104z" />
    <glyph glyph-name="afii10022" unicode="&#x415;" horiz-adv-x="1128" 
d="M1016 25q0 -15 -10 -23.5t-130.5 -12t-279.5 -3.5q-226 0 -331 92.5t-105 288.5v788q0 200 108 290.5t328 90.5q121 0 205 -2t140.5 -6t62 -7.5t9 -11t3.5 -14.5v-102q0 -25 -23 -25h-395q-134 0 -193 -34.5t-59 -178.5v-285h629q17 0 29 -12t12 -29v-77q0 -17 -12 -29
t-29 -12h-629v-344q0 -123 48 -168t204 -45h395q23 0 23 -25v-104z" />
    <glyph glyph-name="afii10024" unicode="&#xc6;" horiz-adv-x="1980" 
d="M1891 45q9 -11 9 -24q0 -21 -25 -21h-160q-28 0 -45 20l-578 703v-682q0 -16 -10.5 -28.5t-25.5 -12.5h-113q-15 0 -26 12t-11 29v682l-578 -703q-17 -20 -45 -20h-159q-26 0 -26 21q0 13 9 24l617 737l-617 697q-8 9 -8 21q0 22 29 22h147q25 0 41 -19l590 -682v662
q0 16 11.5 27.5t27.5 11.5h108q16 0 27.5 -11.5t11.5 -27.5v-662l590 682q19 19 41 19h148q29 0 29 -22q0 -12 -9 -21l-616 -697z" />
    <glyph glyph-name="afii10024" unicode="&#x416;" horiz-adv-x="1980" 
d="M1891 45q9 -11 9 -24q0 -21 -25 -21h-160q-28 0 -45 20l-578 703v-682q0 -16 -10.5 -28.5t-25.5 -12.5h-113q-15 0 -26 12t-11 29v682l-578 -703q-17 -20 -45 -20h-159q-26 0 -26 21q0 13 9 24l617 737l-617 697q-8 9 -8 21q0 22 29 22h147q25 0 41 -19l590 -682v662
q0 16 11.5 27.5t27.5 11.5h108q16 0 27.5 -11.5t11.5 -27.5v-662l590 682q19 19 41 19h148q29 0 29 -22q0 -12 -9 -21l-616 -697z" />
    <glyph glyph-name="afii10025" unicode="&#xc7;" horiz-adv-x="1198" 
d="M1038 424q0 -213 -132.5 -325.5t-377.5 -112.5q-113 0 -236 19.5t-136 33t-13 27.5v69q0 35 41 35q215 -29 344 -29q167 0 243.5 67.5t76.5 215.5v43q0 109 -62 179.5t-178 70.5h-372q-39 0 -39 37v71q0 39 39 39h372q119 0 179.5 64t60.5 180v29q0 130 -75.5 186.5
t-244.5 56.5q-73 0 -174 -11l-174 -20q-37 0 -37 35v72q0 19 18 30t137 30.5t230 19.5q263 0 386.5 -98.5t123.5 -300.5v-29q0 -219 -194 -320q194 -97 194 -321v-43z" />
    <glyph glyph-name="afii10025" unicode="&#x417;" horiz-adv-x="1198" 
d="M1038 424q0 -213 -132.5 -325.5t-377.5 -112.5q-113 0 -236 19.5t-136 33t-13 27.5v69q0 35 41 35q215 -29 344 -29q167 0 243.5 67.5t76.5 215.5v43q0 109 -62 179.5t-178 70.5h-372q-39 0 -39 37v71q0 39 39 39h372q119 0 179.5 64t60.5 180v29q0 130 -75.5 186.5
t-244.5 56.5q-73 0 -174 -11l-174 -20q-37 0 -37 35v72q0 19 18 30t137 30.5t230 19.5q263 0 386.5 -98.5t123.5 -300.5v-29q0 -219 -194 -320q194 -97 194 -321v-43z" />
    <glyph glyph-name="afii10026" unicode="&#xc8;" horiz-adv-x="1393" 
d="M160 59v1424q0 39 37 39h108q15 0 26 -12t11 -27v-1198q0 -6 2 -6l633 1202q13 24 28 32.5t56 8.5h113q24 0 41.5 -17t17.5 -41v-1439q0 -25 -37 -25h-106q-16 0 -26.5 11.5t-10.5 27.5v1196q0 6 -2 6q-3 0 -7 -6l-632 -1202q-18 -33 -66 -33h-127q-24 0 -41.5 17.5
t-17.5 41.5z" />
    <glyph glyph-name="afii10026" unicode="&#x418;" horiz-adv-x="1393" 
d="M160 59v1424q0 39 37 39h108q15 0 26 -12t11 -27v-1198q0 -6 2 -6l633 1202q13 24 28 32.5t56 8.5h113q24 0 41.5 -17t17.5 -41v-1439q0 -25 -37 -25h-106q-16 0 -26.5 11.5t-10.5 27.5v1196q0 6 -2 6q-3 0 -7 -6l-632 -1202q-18 -33 -66 -33h-127q-24 0 -41.5 17.5
t-17.5 41.5z" />
    <glyph glyph-name="afii10027" unicode="&#xc9;" horiz-adv-x="1393" 
d="M1001 1946q24 0 24 -26q0 -118 -94 -208t-241 -90t-240.5 90t-93.5 208q0 26 23 26h76q27 0 30 -33q9 -76 66.5 -120t138.5 -44t139 44t66 120q3 33 31 33h75zM160 59v1424q0 39 37 39h108q15 0 26 -12t11 -27v-1198q0 -6 2 -6l633 1202q13 24 28 32.5t56 8.5h113
q24 0 41.5 -17t17.5 -41v-1439q0 -25 -37 -25h-106q-16 0 -26.5 11.5t-10.5 27.5v1196q0 6 -2 6q-3 0 -7 -6l-632 -1202q-18 -33 -66 -33h-127q-24 0 -41.5 17.5t-17.5 41.5z" />
    <glyph glyph-name="afii10027" unicode="&#x419;" horiz-adv-x="1393" 
d="M1001 1946q24 0 24 -26q0 -118 -94 -208t-241 -90t-240.5 90t-93.5 208q0 26 23 26h76q27 0 30 -33q9 -76 66.5 -120t138.5 -44t139 44t66 120q3 33 31 33h75zM160 59v1424q0 39 37 39h108q15 0 26 -12t11 -27v-1198q0 -6 2 -6l633 1202q13 24 28 32.5t56 8.5h113
q24 0 41.5 -17t17.5 -41v-1439q0 -25 -37 -25h-106q-16 0 -26.5 11.5t-10.5 27.5v1196q0 6 -2 6q-3 0 -7 -6l-632 -1202q-18 -33 -66 -33h-127q-24 0 -41.5 17.5t-17.5 41.5z" />
    <glyph glyph-name="afii10028" unicode="&#xca;" horiz-adv-x="1243" 
d="M1145 45q9 -11 9 -24q0 -21 -26 -21h-159q-29 0 -45 20l-578 703v-682q0 -16 -10.5 -28.5t-26.5 -12.5h-112q-16 0 -26.5 12t-10.5 29v1442q0 15 11 27t28 12h108q16 0 27.5 -11.5t11.5 -27.5v-662l590 682q18 19 41 19h147q29 0 29 -22q0 -12 -8 -21l-617 -697z" />
    <glyph glyph-name="afii10028" unicode="&#x41a;" horiz-adv-x="1243" 
d="M1145 45q9 -11 9 -24q0 -21 -26 -21h-159q-29 0 -45 20l-578 703v-682q0 -16 -10.5 -28.5t-26.5 -12.5h-112q-16 0 -26.5 12t-10.5 29v1442q0 15 11 27t28 12h108q16 0 27.5 -11.5t11.5 -27.5v-662l590 682q18 19 41 19h147q29 0 29 -22q0 -12 -8 -21l-617 -697z" />
    <glyph glyph-name="afii10029" unicode="&#xcb;" horiz-adv-x="1296" 
d="M1047 31l-359 1306q-10 37 -39 37q-31 0 -41 -37l-356 -1306q-8 -31 -37 -31h-121q-35 0 -35 33q0 7 2 14l379 1333q44 156 209 156q163 0 207 -154l379 -1335q2 -4 2 -14q0 -33 -35 -33h-121q-26 0 -34 31z" />
    <glyph glyph-name="afii10029" unicode="&#x41b;" horiz-adv-x="1296" 
d="M1047 31l-359 1306q-10 37 -39 37q-31 0 -41 -37l-356 -1306q-8 -31 -37 -31h-121q-35 0 -35 33q0 7 2 14l379 1333q44 156 209 156q163 0 207 -154l379 -1335q2 -4 2 -14q0 -33 -35 -33h-121q-26 0 -34 31z" />
    <glyph glyph-name="afii10030" unicode="&#xcc;" horiz-adv-x="1559" 
d="M1401 41q0 -17 -12 -29t-29 -12h-100q-17 0 -29 12t-12 29v1214q0 8 -2 8t-5 -6l-191 -395q-105 -218 -114.5 -233.5t-28 -26t-51.5 -10.5h-94q-34 0 -54 11.5t-38 47.5l-220 456q-75 156 -77 156t-2 -8v-1214q0 -17 -12 -29t-29 -12h-100q-17 0 -29 12t-12 29v1421
q0 25 17.5 42.5t41.5 17.5h133q49 0 66 -35l338 -703q10 -22 24 -22t25 22l338 703q16 35 65 35h133q25 0 42.5 -17.5t17.5 -42.5v-1421z" />
    <glyph glyph-name="afii10030" unicode="&#x41c;" horiz-adv-x="1559" 
d="M1401 41q0 -17 -12 -29t-29 -12h-100q-17 0 -29 12t-12 29v1214q0 8 -2 8t-5 -6l-191 -395q-105 -218 -114.5 -233.5t-28 -26t-51.5 -10.5h-94q-34 0 -54 11.5t-38 47.5l-220 456q-75 156 -77 156t-2 -8v-1214q0 -17 -12 -29t-29 -12h-100q-17 0 -29 12t-12 29v1421
q0 25 17.5 42.5t41.5 17.5h133q49 0 66 -35l338 -703q10 -22 24 -22t25 22l338 703q16 35 65 35h133q25 0 42.5 -17.5t17.5 -42.5v-1421z" />
    <glyph glyph-name="afii10031" unicode="&#xcd;" horiz-adv-x="1393" 
d="M1233 41q0 -17 -12 -29t-29 -12h-105q-16 0 -28 12t-12 29v680h-701v-680q0 -17 -12 -29t-29 -12h-104q-17 0 -29 12t-12 29v1440q0 17 12 29t29 12h104q17 0 29 -12t12 -29v-594h701v594q0 17 12 29t28 12h105q17 0 29 -12t12 -29v-1440z" />
    <glyph glyph-name="afii10031" unicode="&#x41d;" horiz-adv-x="1393" 
d="M1233 41q0 -17 -12 -29t-29 -12h-105q-16 0 -28 12t-12 29v680h-701v-680q0 -17 -12 -29t-29 -12h-104q-17 0 -29 12t-12 29v1440q0 17 12 29t29 12h104q17 0 29 -12t12 -29v-594h701v594q0 17 12 29t28 12h105q17 0 29 -12t12 -29v-1440z" />
    <glyph glyph-name="afii10032" unicode="&#xce;" horiz-adv-x="1354" 
d="M1231 629q0 -314 -144 -478.5t-409 -164.5t-410 164.5t-145 478.5v264q0 326 150 484.5t405 158.5q265 0 409 -164.5t144 -478.5v-264zM1042 629v264q0 475 -364 475q-367 0 -367 -475v-264q0 -475 367 -475q364 0 364 475z" />
    <glyph glyph-name="afii10032" unicode="&#x41e;" horiz-adv-x="1354" 
d="M1231 629q0 -314 -144 -478.5t-409 -164.5t-410 164.5t-145 478.5v264q0 326 150 484.5t405 158.5q265 0 409 -164.5t144 -478.5v-264zM1042 629v264q0 475 -364 475q-367 0 -367 -475v-264q0 -475 367 -475q364 0 364 475z" />
    <glyph glyph-name="afii10033" unicode="&#xcf;" horiz-adv-x="1393" 
d="M1047 41v1225q0 51 -16 69.5t-77 18.5h-516q-60 0 -76 -18.5t-16 -69.5v-1225q0 -17 -12 -29t-29 -12h-104q-17 0 -29 12t-12 29v1225q0 256 278 256h516q279 0 279 -256v-1225q0 -17 -12 -29t-29 -12h-105q-16 0 -28 12t-12 29z" />
    <glyph glyph-name="afii10033" unicode="&#x41f;" horiz-adv-x="1393" 
d="M1047 41v1225q0 51 -16 69.5t-77 18.5h-516q-60 0 -76 -18.5t-16 -69.5v-1225q0 -17 -12 -29t-29 -12h-104q-17 0 -29 12t-12 29v1225q0 256 278 256h516q279 0 279 -256v-1225q0 -17 -12 -29t-29 -12h-105q-16 0 -28 12t-12 29z" />
    <glyph glyph-name="afii10034" unicode="&#xd0;" horiz-adv-x="1204" 
d="M1122 1065q0 -459 -573 -459q-73 0 -205 10v-575q0 -16 -10.5 -28.5t-26.5 -12.5h-110q-16 0 -26.5 12t-10.5 29v1427q0 22 16 39t152.5 23t220.5 6q573 0 573 -444v-27zM936 1065v27q0 151 -91.5 218.5t-295.5 67.5q-100 0 -205 -8v-600q188 -8 205 -8q206 0 296.5 69.5
t90.5 233.5z" />
    <glyph glyph-name="afii10034" unicode="&#x420;" horiz-adv-x="1204" 
d="M1122 1065q0 -459 -573 -459q-73 0 -205 10v-575q0 -16 -10.5 -28.5t-26.5 -12.5h-110q-16 0 -26.5 12t-10.5 29v1427q0 22 16 39t152.5 23t220.5 6q573 0 573 -444v-27zM936 1065v27q0 151 -91.5 218.5t-295.5 67.5q-100 0 -205 -8v-600q188 -8 205 -8q206 0 296.5 69.5
t90.5 233.5z" />
    <glyph glyph-name="afii10035" unicode="&#xd1;" horiz-adv-x="1116" 
d="M1044 53q0 -23 -20 -33.5t-114.5 -22t-245.5 -11.5q-250 0 -395.5 161t-145.5 471v285q0 312 144.5 472.5t396.5 160.5q100 0 226.5 -16t138 -22.5t11.5 -20.5v-105q0 -22 -30 -22q-222 18 -344 18q-357 0 -357 -465v-285q0 -230 91.5 -347t265.5 -117q102 0 200 6
l145 10q33 0 33 -33v-84z" />
    <glyph glyph-name="afii10035" unicode="&#x421;" horiz-adv-x="1116" 
d="M1044 53q0 -23 -20 -33.5t-114.5 -22t-245.5 -11.5q-250 0 -395.5 161t-145.5 471v285q0 312 144.5 472.5t396.5 160.5q100 0 226.5 -16t138 -22.5t11.5 -20.5v-105q0 -22 -30 -22q-222 18 -344 18q-357 0 -357 -465v-285q0 -230 91.5 -347t265.5 -117q102 0 200 6
l145 10q33 0 33 -33v-84z" />
    <glyph glyph-name="afii10036" unicode="&#xd2;" horiz-adv-x="1208" 
d="M1137 1395q0 -33 -39 -33h-400v-1321q0 -16 -10.5 -28.5t-25.5 -12.5h-113q-15 0 -26 12t-11 29v1321h-399q-41 0 -41 33v90q0 15 12 26t29 11h985q39 0 39 -37v-90z" />
    <glyph glyph-name="afii10036" unicode="&#x422;" horiz-adv-x="1208" 
d="M1137 1395q0 -33 -39 -33h-400v-1321q0 -16 -10.5 -28.5t-25.5 -12.5h-113q-15 0 -26 12t-11 29v1321h-399q-41 0 -41 33v90q0 15 12 26t29 11h985q39 0 39 -37v-90z" />
    <glyph glyph-name="afii10037" unicode="&#xd3;" horiz-adv-x="1204" 
d="M1143 1470l-455 -1173q-75 -196 -161.5 -253.5t-235.5 -57.5q-172 0 -172 45v94q0 33 45 33q63 -6 127 -6q74 0 111 21t60 68t111 277h-10q-61 0 -92 29.5t-55 95.5l-310 827q-4 12 -4 22q0 30 33 30h125q26 0 37 -29l289 -768q9 -26 16 -32.5t25 -6.5h12l313 807
q13 29 35 29h127q33 0 33 -30q0 -9 -4 -22z" />
    <glyph glyph-name="afii10037" unicode="&#x423;" horiz-adv-x="1204" 
d="M1143 1470l-455 -1173q-75 -196 -161.5 -253.5t-235.5 -57.5q-172 0 -172 45v94q0 33 45 33q63 -6 127 -6q74 0 111 21t60 68t111 277h-10q-61 0 -92 29.5t-55 95.5l-310 827q-4 12 -4 22q0 30 33 30h125q26 0 37 -29l289 -768q9 -26 16 -32.5t25 -6.5h12l313 807
q13 29 35 29h127q33 0 33 -30q0 -9 -4 -22z" />
    <glyph glyph-name="afii10038" unicode="&#xd4;" horiz-adv-x="1616" 
d="M899 1495v-192h78q275 0 424 -119.5t149 -345.5v-68q0 -245 -154.5 -362t-418.5 -117q-53 0 -78 2v-252q0 -16 -10.5 -28.5t-26.5 -12.5h-110q-16 0 -26.5 12t-10.5 29v252q-28 -2 -78 -2q-276 0 -425 122.5t-149 356.5v68q0 226 149.5 345.5t424.5 119.5h78v192
q0 17 10.5 29t26.5 12h110q16 0 26.5 -12.5t10.5 -28.5zM977 1145h-78v-696q28 -3 78 -3q200 0 293.5 77.5t93.5 246.5v68q0 307 -387 307zM715 1145h-78q-387 0 -387 -307v-68q0 -164 90.5 -244t296.5 -80q48 0 78 3v696z" />
    <glyph glyph-name="afii10038" unicode="&#x424;" horiz-adv-x="1616" 
d="M899 1495v-192h78q275 0 424 -119.5t149 -345.5v-68q0 -245 -154.5 -362t-418.5 -117q-53 0 -78 2v-252q0 -16 -10.5 -28.5t-26.5 -12.5h-110q-16 0 -26.5 12t-10.5 29v252q-28 -2 -78 -2q-276 0 -425 122.5t-149 356.5v68q0 226 149.5 345.5t424.5 119.5h78v192
q0 17 10.5 29t26.5 12h110q16 0 26.5 -12.5t10.5 -28.5zM977 1145h-78v-696q28 -3 78 -3q200 0 293.5 77.5t93.5 246.5v68q0 307 -387 307zM715 1145h-78q-387 0 -387 -307v-68q0 -164 90.5 -244t296.5 -80q48 0 78 3v696z" />
    <glyph glyph-name="afii10039" unicode="&#xd5;" horiz-adv-x="1323" 
d="M1237 51q7 -10 7 -22q0 -29 -34 -29h-129q-23 0 -33 17l-385 610l-257 -419q-117 -191 -127.5 -199.5t-24.5 -8.5h-121q-33 0 -33 30q0 11 6 21l455 723l-451 699q-6 10 -6 20q0 29 31 29h133q14 0 21.5 -4t50.5 -73l334 -527l224 367q132 217 136.5 223.5t13 10
t21.5 3.5h121q32 0 32 -31q0 -9 -6 -18l-440 -703z" />
    <glyph glyph-name="afii10039" unicode="&#x425;" horiz-adv-x="1323" 
d="M1237 51q7 -10 7 -22q0 -29 -34 -29h-129q-23 0 -33 17l-385 610l-257 -419q-117 -191 -127.5 -199.5t-24.5 -8.5h-121q-33 0 -33 30q0 11 6 21l455 723l-451 699q-6 10 -6 20q0 29 31 29h133q14 0 21.5 -4t50.5 -73l334 -527l224 367q132 217 136.5 223.5t13 10
t21.5 3.5h121q32 0 32 -31q0 -9 -6 -18l-440 -703z" />
    <glyph glyph-name="afii10040" unicode="&#xd6;" horiz-adv-x="1407" 
d="M1180 0h-742q-278 0 -278 254v1227q0 17 12 29t29 12h104q17 0 29 -12t12 -29v-1227q0 -51 16 -69.5t76 -18.5h516q61 0 77 18.5t16 69.5v1227q0 17 12 29t28 12h105q17 0 29 -12t12 -29v-1225q0 -46 -10 -90h106q37 0 37 -39v-332q0 -16 -10.5 -28.5t-26.5 -12.5h-112
q-16 0 -26.5 12t-10.5 29v205z" />
    <glyph glyph-name="afii10040" unicode="&#x426;" horiz-adv-x="1407" 
d="M1180 0h-742q-278 0 -278 254v1227q0 17 12 29t29 12h104q17 0 29 -12t12 -29v-1227q0 -51 16 -69.5t76 -18.5h516q61 0 77 18.5t16 69.5v1227q0 17 12 29t28 12h105q17 0 29 -12t12 -29v-1225q0 -46 -10 -90h106q37 0 37 -39v-332q0 -16 -10.5 -28.5t-26.5 -12.5h-112
q-16 0 -26.5 12t-10.5 29v205z" />
    <glyph glyph-name="afii10041" unicode="&#xd7;" horiz-adv-x="1305" 
d="M1145 41q0 -17 -12 -29t-29 -12h-105q-16 0 -28.5 12t-12.5 29v592q-178 -39 -364 -39q-455 0 -455 434v453q0 17 12 29t29 12h105q16 0 28.5 -12t12.5 -29v-453q0 -153 68.5 -208.5t242.5 -55.5q48 0 161 11t160 22v684q0 16 11 28.5t26 12.5h113q15 0 26 -12t11 -29
v-1440z" />
    <glyph glyph-name="afii10041" unicode="&#x427;" horiz-adv-x="1305" 
d="M1145 41q0 -17 -12 -29t-29 -12h-105q-16 0 -28.5 12t-12.5 29v592q-178 -39 -364 -39q-455 0 -455 434v453q0 17 12 29t29 12h105q16 0 28.5 -12t12.5 -29v-453q0 -153 68.5 -208.5t242.5 -55.5q48 0 161 11t160 22v684q0 16 11 28.5t26 12.5h113q15 0 26 -12t11 -29
v-1440z" />
    <glyph glyph-name="afii10042" unicode="&#xd8;" horiz-adv-x="1911" 
d="M1565 254v1227q0 17 12 29t29 12h104q17 0 29 -12t12 -29v-1227q0 -254 -278 -254h-1035q-278 0 -278 254v1227q0 17 12 29t29 12h104q17 0 29 -12t12 -29v-1227q0 -51 16 -69.5t76 -18.5h424v1315q0 17 12 29t29 12h105q16 0 28.5 -12t12.5 -29v-1315h424q60 0 76 18.5
t16 69.5z" />
    <glyph glyph-name="afii10042" unicode="&#x428;" horiz-adv-x="1911" 
d="M1565 254v1227q0 17 12 29t29 12h104q17 0 29 -12t12 -29v-1227q0 -254 -278 -254h-1035q-278 0 -278 254v1227q0 17 12 29t29 12h104q17 0 29 -12t12 -29v-1227q0 -51 16 -69.5t76 -18.5h424v1315q0 17 12 29t29 12h105q16 0 28.5 -12t12.5 -29v-1315h424q60 0 76 18.5
t16 69.5z" />
    <glyph glyph-name="afii10043" unicode="&#xd9;" horiz-adv-x="1935" 
d="M1049 166h424q60 0 76 18.5t16 69.5v1227q0 17 12 29t29 12h104q17 0 29 -12t12 -29v-1227q0 -50 -10 -88h106q37 0 37 -39v-332q0 -16 -10.5 -28.5t-26.5 -12.5h-112q-16 0 -26.5 12t-10.5 29v205h-1260q-278 0 -278 254v1227q0 17 12 29t29 12h104q17 0 29 -12t12 -29
v-1227q0 -51 16 -69.5t76 -18.5h424v1315q0 17 12 29t29 12h105q16 0 28.5 -12t12.5 -29v-1315z" />
    <glyph glyph-name="afii10043" unicode="&#x429;" horiz-adv-x="1935" 
d="M1049 166h424q60 0 76 18.5t16 69.5v1227q0 17 12 29t29 12h104q17 0 29 -12t12 -29v-1227q0 -50 -10 -88h106q37 0 37 -39v-332q0 -16 -10.5 -28.5t-26.5 -12.5h-112q-16 0 -26.5 12t-10.5 29v205h-1260q-278 0 -278 254v1227q0 17 12 29t29 12h104q17 0 29 -12t12 -29
v-1227q0 -51 16 -69.5t76 -18.5h424v1315q0 17 12 29t29 12h105q16 0 28.5 -12t12.5 -29v-1315z" />
    <glyph glyph-name="afii10044" unicode="&#xda;" horiz-adv-x="1386" 
d="M1315 420q0 -434 -598 -434q-139 0 -253 8.5t-131.5 28.5t-17.5 57v1276h-223q-17 0 -29 12t-12 29v84q0 17 12 29t29 12h373q37 0 37 -39v-600q122 8 215 8q598 0 598 -436v-35zM1128 420v37q0 143 -92.5 209.5t-318.5 66.5q-80 0 -215 -8v-573q192 -9 215 -9
q226 0 318.5 66.5t92.5 210.5z" />
    <glyph glyph-name="afii10044" unicode="&#x42a;" horiz-adv-x="1386" 
d="M1315 420q0 -434 -598 -434q-139 0 -253 8.5t-131.5 28.5t-17.5 57v1276h-223q-17 0 -29 12t-12 29v84q0 17 12 29t29 12h373q37 0 37 -39v-600q122 8 215 8q598 0 598 -436v-35zM1128 420v37q0 143 -92.5 209.5t-318.5 66.5q-80 0 -215 -8v-573q192 -9 215 -9
q226 0 318.5 66.5t92.5 210.5z" />
    <glyph glyph-name="afii10045" unicode="&#xdb;" horiz-adv-x="1767" 
d="M1608 41q0 -16 -10.5 -28.5t-26.5 -12.5h-113q-15 0 -26 12t-11 29v1442q0 39 37 39h113q37 0 37 -39v-1442zM1159 420q0 -434 -598 -434q-138 0 -252.5 8.5t-131.5 28.5t-17 57v1403q0 39 37 39h112q37 0 37 -39v-600q122 8 215 8q598 0 598 -436v-35zM973 420v37
q0 143 -93 209.5t-319 66.5q-79 0 -215 -8v-573q192 -9 215 -9q226 0 319 66.5t93 210.5z" />
    <glyph glyph-name="afii10045" unicode="&#x42b;" horiz-adv-x="1767" 
d="M1608 41q0 -16 -10.5 -28.5t-26.5 -12.5h-113q-15 0 -26 12t-11 29v1442q0 39 37 39h113q37 0 37 -39v-1442zM1159 420q0 -434 -598 -434q-138 0 -252.5 8.5t-131.5 28.5t-17 57v1403q0 39 37 39h112q37 0 37 -39v-600q122 8 215 8q598 0 598 -436v-35zM973 420v37
q0 143 -93 209.5t-319 66.5q-79 0 -215 -8v-573q192 -9 215 -9q226 0 319 66.5t93 210.5z" />
    <glyph glyph-name="afii10046" unicode="&#xdc;" horiz-adv-x="1231" 
d="M1159 420q0 -434 -598 -434q-138 0 -252.5 8.5t-131.5 28.5t-17 57v1403q0 39 37 39h112q37 0 37 -39v-600q122 8 215 8q598 0 598 -436v-35zM973 420v37q0 143 -93 209.5t-319 66.5q-79 0 -215 -8v-573q192 -9 215 -9q226 0 319 66.5t93 210.5z" />
    <glyph glyph-name="afii10046" unicode="&#x42c;" horiz-adv-x="1231" 
d="M1159 420q0 -434 -598 -434q-138 0 -252.5 8.5t-131.5 28.5t-17 57v1403q0 39 37 39h112q37 0 37 -39v-600q122 8 215 8q598 0 598 -436v-35zM973 420v37q0 143 -93 209.5t-319 66.5q-79 0 -215 -8v-573q192 -9 215 -9q226 0 319 66.5t93 210.5z" />
    <glyph glyph-name="afii10047" unicode="&#xdd;" horiz-adv-x="1174" 
d="M240 870h675q-7 249 -122.5 373.5t-327.5 124.5q-111 0 -192 -6l-127 -9q-33 0 -33 33v82q0 24 19 34t105 22t230 12q301 0 468 -176.5t167 -521.5v-154q0 -345 -167 -521.5t-468 -176.5q-147 0 -232.5 12.5t-103.5 22t-18 32.5v82q0 33 41 33q172 -14 311 -14
q219 0 334.5 133.5t115.5 396.5v27h-675q-17 0 -29 12t-12 29v77q0 17 12 29t29 12z" />
    <glyph glyph-name="afii10047" unicode="&#x42d;" horiz-adv-x="1174" 
d="M240 870h675q-7 249 -122.5 373.5t-327.5 124.5q-111 0 -192 -6l-127 -9q-33 0 -33 33v82q0 24 19 34t105 22t230 12q301 0 468 -176.5t167 -521.5v-154q0 -345 -167 -521.5t-468 -176.5q-147 0 -232.5 12.5t-103.5 22t-18 32.5v82q0 33 41 33q172 -14 311 -14
q219 0 334.5 133.5t115.5 396.5v27h-675q-17 0 -29 12t-12 29v77q0 17 12 29t29 12z" />
    <glyph glyph-name="afii10048" unicode="&#xde;" horiz-adv-x="1901" 
d="M1778 629q0 -314 -144 -478.5t-409 -164.5q-266 0 -410.5 164.5t-144.5 478.5v51h-303v-639q0 -16 -10.5 -28.5t-26.5 -12.5h-113q-15 0 -26 12t-11 29v1442q0 39 37 39h113q37 0 37 -39v-637h303v47q0 314 144.5 478.5t410.5 164.5q265 0 409 -164.5t144 -478.5v-264z
M1589 629v264q0 475 -364 475q-367 0 -367 -475v-264q0 -475 367 -475q364 0 364 475z" />
    <glyph glyph-name="afii10048" unicode="&#x42e;" horiz-adv-x="1901" 
d="M1778 629q0 -314 -144 -478.5t-409 -164.5q-266 0 -410.5 164.5t-144.5 478.5v51h-303v-639q0 -16 -10.5 -28.5t-26.5 -12.5h-113q-15 0 -26 12t-11 29v1442q0 39 37 39h113q37 0 37 -39v-637h303v47q0 314 144.5 478.5t410.5 164.5q265 0 409 -164.5t144 -478.5v-264z
M1589 629v264q0 475 -364 475q-367 0 -367 -475v-264q0 -475 367 -475q364 0 364 475z" />
    <glyph glyph-name="afii10049" unicode="&#xdf;" horiz-adv-x="1298" 
d="M1144 41q0 -16 -10.5 -28.5t-26.5 -12.5h-111q-15 0 -26 12t-11 29v602q-117 -6 -225 -6h-53l-234 -389q-134 -224 -140 -232.5t-16 -12t-30 -3.5h-131q-26 0 -26 27q0 9 5 18l373 623q-155 41 -238 148.5t-83 264.5v15q0 440 573 440q150 0 264.5 -8t130 -17.5
t15.5 -35.5v-1434zM959 801v561q-46 6 -225 6q-208 0 -298.5 -65t-90.5 -207v-15q0 -159 95 -221.5t294 -62.5q82 0 225 4z" />
    <glyph glyph-name="afii10049" unicode="&#x42f;" horiz-adv-x="1298" 
d="M1144 41q0 -16 -10.5 -28.5t-26.5 -12.5h-111q-15 0 -26 12t-11 29v602q-117 -6 -225 -6h-53l-234 -389q-134 -224 -140 -232.5t-16 -12t-30 -3.5h-131q-26 0 -26 27q0 9 5 18l373 623q-155 41 -238 148.5t-83 264.5v15q0 440 573 440q150 0 264.5 -8t130 -17.5
t15.5 -35.5v-1434zM959 801v561q-46 6 -225 6q-208 0 -298.5 -65t-90.5 -207v-15q0 -159 95 -221.5t294 -62.5q82 0 225 4z" />
    <glyph glyph-name="afii10065" unicode="&#xe0;" horiz-adv-x="1063" 
d="M924 41q0 -17 -12.5 -29t-28.5 -12h-95q-16 0 -28 12t-12 29v45q-171 -100 -316 -100q-161 0 -247.5 83.5t-86.5 247.5v25q0 171 113.5 251.5t380.5 80.5h151v82q0 127 -48.5 179t-170.5 52q-116 0 -195 -6l-127 -11q-38 0 -38 34v71q0 22 16 31t117 22t227 13
q400 0 400 -385v-715zM743 215v330h-151q-171 0 -242 -40.5t-71 -160.5v-25q0 -97 42 -141.5t146 -44.5q127 0 276 82z" />
    <glyph glyph-name="afii10065" unicode="&#x430;" horiz-adv-x="1063" 
d="M924 41q0 -17 -12.5 -29t-28.5 -12h-95q-16 0 -28 12t-12 29v45q-171 -100 -316 -100q-161 0 -247.5 83.5t-86.5 247.5v25q0 171 113.5 251.5t380.5 80.5h151v82q0 127 -48.5 179t-170.5 52q-116 0 -195 -6l-127 -11q-38 0 -38 34v71q0 22 16 31t117 22t227 13
q400 0 400 -385v-715zM743 215v330h-151q-171 0 -242 -40.5t-71 -160.5v-25q0 -97 42 -141.5t146 -44.5q127 0 276 82z" />
    <glyph glyph-name="afii10066" unicode="&#xe1;" horiz-adv-x="1116" 
d="M1014 498q0 -244 -115 -378t-344 -134q-222 0 -337.5 130.5t-115.5 381.5v94q0 262 22.5 404.5t115 242.5t292.5 139q168 33 202 43t55.5 34t27.5 58q6 27 31 27h115q24 0 24 -22q0 -43 -21.5 -94.5t-80.5 -93.5t-165 -64l-153 -33q-151 -32 -201 -83.5t-57 -123.5
q99 80 248 80q221 0 339 -132.5t118 -381.5v-94zM831 498v94q0 360 -274 360t-274 -360v-94q0 -178 64 -267.5t208 -89.5q276 0 276 357z" />
    <glyph glyph-name="afii10066" unicode="&#x431;" horiz-adv-x="1116" 
d="M1014 498q0 -244 -115 -378t-344 -134q-222 0 -337.5 130.5t-115.5 381.5v94q0 262 22.5 404.5t115 242.5t292.5 139q168 33 202 43t55.5 34t27.5 58q6 27 31 27h115q24 0 24 -22q0 -43 -21.5 -94.5t-80.5 -93.5t-165 -64l-153 -33q-151 -32 -201 -83.5t-57 -123.5
q99 80 248 80q221 0 339 -132.5t118 -381.5v-94zM831 498v94q0 360 -274 360t-274 -360v-94q0 -178 64 -267.5t208 -89.5q276 0 276 357z" />
    <glyph glyph-name="afii10067" unicode="&#xe2;" horiz-adv-x="1133" 
d="M1020 330q0 -344 -518 -344q-53 0 -189.5 4.5t-155 19.5t-18.5 45v1016q0 51 63.5 60.5t319.5 9.5q257 0 371.5 -76.5t114.5 -228.5v-11q0 -80 -38.5 -145t-109.5 -94q160 -67 160 -242v-14zM825 825v11q0 89 -75.5 123t-239.5 34q-145 0 -191 -2v-338h256
q147 0 198.5 44t51.5 128zM838 330v14q0 82 -54 126t-209 44h-256v-379q121 -4 177 -4q180 0 261 45.5t81 153.5z" />
    <glyph glyph-name="afii10067" unicode="&#x432;" horiz-adv-x="1133" 
d="M1020 330q0 -344 -518 -344q-53 0 -189.5 4.5t-155 19.5t-18.5 45v1016q0 51 63.5 60.5t319.5 9.5q257 0 371.5 -76.5t114.5 -228.5v-11q0 -80 -38.5 -145t-109.5 -94q160 -67 160 -242v-14zM825 825v11q0 89 -75.5 123t-239.5 34q-145 0 -191 -2v-338h256
q147 0 198.5 44t51.5 128zM838 330v14q0 82 -54 126t-209 44h-256v-379q121 -4 177 -4q180 0 261 45.5t81 153.5z" />
    <glyph glyph-name="afii10068" unicode="&#xe3;" horiz-adv-x="848" 
d="M756 971h-359q-46 0 -62 -16t-16 -62v-852q0 -17 -12 -29t-28 -12h-99q-17 0 -29 12t-12 29v852q0 107 41.5 158.5t94 63t122.5 11.5h359q17 0 29 -12t12 -29v-73q0 -17 -12 -29t-29 -12z" />
    <glyph glyph-name="afii10068" unicode="&#x433;" horiz-adv-x="848" 
d="M756 971h-359q-46 0 -62 -16t-16 -62v-852q0 -17 -12 -29t-28 -12h-99q-17 0 -29 12t-12 29v852q0 107 41.5 158.5t94 63t122.5 11.5h359q17 0 29 -12t12 -29v-73q0 -17 -12 -29t-29 -12z" />
    <glyph glyph-name="afii10069" unicode="&#xe4;" horiz-adv-x="1233" 
d="M1141 156q17 0 29 -11.5t12 -27.5v-299q0 -17 -12 -29t-29 -12h-97q-16 0 -28 12t-12 29v182h-775v-182q0 -17 -12 -29t-29 -12h-96q-17 0 -29 12t-12 29v299q0 16 12 27.5t29 11.5h68l237 829q44 156 209 156q164 0 207 -154l234 -831h94zM565 942l-215 -786h510
l-215 786q-10 37 -39 37q-31 0 -41 -37z" />
    <glyph glyph-name="afii10069" unicode="&#x434;" horiz-adv-x="1233" 
d="M1141 156q17 0 29 -11.5t12 -27.5v-299q0 -17 -12 -29t-29 -12h-97q-16 0 -28 12t-12 29v182h-775v-182q0 -17 -12 -29t-29 -12h-96q-17 0 -29 12t-12 29v299q0 16 12 27.5t29 11.5h68l237 829q44 156 209 156q164 0 207 -154l234 -831h94zM565 942l-215 -786h510
l-215 786q-10 37 -39 37q-31 0 -41 -37z" />
    <glyph glyph-name="afii10070" unicode="&#xe5;" horiz-adv-x="1114" 
d="M1008 551q0 -45 -39 -45h-686v-29q0 -173 67 -253.5t217 -80.5q152 0 261.5 12t114.5 12q32 0 32 -30v-69q0 -28 -16 -39t-137.5 -27t-254.5 -16q-222 0 -343.5 124.5t-121.5 366.5v185q0 222 119 350.5t336 128.5q216 0 333.5 -126.5t117.5 -352.5v-111zM825 643v19
q0 166 -63.5 243.5t-204.5 77.5q-274 0 -274 -321v-19h542z" />
    <glyph glyph-name="afii10070" unicode="&#x435;" horiz-adv-x="1114" 
d="M1008 551q0 -45 -39 -45h-686v-29q0 -173 67 -253.5t217 -80.5q152 0 261.5 12t114.5 12q32 0 32 -30v-69q0 -28 -16 -39t-137.5 -27t-254.5 -16q-222 0 -343.5 124.5t-121.5 366.5v185q0 222 119 350.5t336 128.5q216 0 333.5 -126.5t117.5 -352.5v-111zM825 643v19
q0 166 -63.5 243.5t-204.5 77.5q-274 0 -274 -321v-19h542z" />
    <glyph glyph-name="afii10072" unicode="&#xe6;" horiz-adv-x="1573" 
d="M1040 594l455 -549q6 -6 6 -18q0 -27 -22 -27h-148q-18 0 -27 6.5t-140 168.5l-287 355v-489q0 -17 -12.5 -29t-28.5 -12h-99q-17 0 -29 12t-12 29v489q-401 -495 -413.5 -512.5t-40.5 -17.5h-148q-22 0 -22 27q0 11 2 14l458 553l-301 326q-153 165 -156 170.5t-3 13.5
q0 22 30 22h144q17 0 24.5 -4.5t138.5 -151.5l287 -323v438q0 17 12 29t29 12h99q16 0 28.5 -12t12.5 -29v-438l418 471q8 8 32 8h143q31 0 31 -22q0 -11 -4 -16z" />
    <glyph glyph-name="afii10072" unicode="&#x436;" horiz-adv-x="1573" 
d="M1040 594l455 -549q6 -6 6 -18q0 -27 -22 -27h-148q-18 0 -27 6.5t-140 168.5l-287 355v-489q0 -17 -12.5 -29t-28.5 -12h-99q-17 0 -29 12t-12 29v489q-401 -495 -413.5 -512.5t-40.5 -17.5h-148q-22 0 -22 27q0 11 2 14l458 553l-301 326q-153 165 -156 170.5t-3 13.5
q0 22 30 22h144q17 0 24.5 -4.5t138.5 -151.5l287 -323v438q0 17 12 29t29 12h99q16 0 28.5 -12t12.5 -29v-438l418 471q8 8 32 8h143q31 0 31 -22q0 -11 -4 -16z" />
    <glyph glyph-name="afii10073" unicode="&#xe7;" horiz-adv-x="1036" 
d="M913 326q0 -162 -120 -251t-330 -89q-102 0 -197 11t-119 20t-24 32v72q0 22 10 28.5t33 6.5q157 -19 297 -19q143 0 203.5 43t60.5 146v18q0 170 -199 170h-319q-39 0 -39 35v69q0 35 39 35h319q199 0 199 168v17q0 87 -58 119t-208 32q-72 0 -159 -7l-145 -12
q-34 0 -34 36v71q0 23 22 32t117.5 20.5t200.5 11.5q234 0 342 -75t108 -228v-17q0 -70 -40 -135t-113 -102q153 -74 153 -240v-18z" />
    <glyph glyph-name="afii10073" unicode="&#x437;" horiz-adv-x="1036" 
d="M913 326q0 -162 -120 -251t-330 -89q-102 0 -197 11t-119 20t-24 32v72q0 22 10 28.5t33 6.5q157 -19 297 -19q143 0 203.5 43t60.5 146v18q0 170 -199 170h-319q-39 0 -39 35v69q0 35 39 35h319q199 0 199 168v17q0 87 -58 119t-208 32q-72 0 -159 -7l-145 -12
q-34 0 -34 36v71q0 23 22 32t117.5 20.5t200.5 11.5q234 0 342 -75t108 -228v-17q0 -70 -40 -135t-113 -102q153 -74 153 -240v-18z" />
    <glyph glyph-name="afii10074" unicode="&#xe8;" horiz-adv-x="1141" 
d="M1001 41q0 -17 -11 -29t-27 -12h-103q-16 0 -27.5 12t-11.5 29v39q-163 -94 -325 -94q-357 0 -357 426v673q0 17 12 29t29 12h99q16 0 28 -12t12 -29v-673q0 -145 49.5 -208t176.5 -63q116 0 276 80v864q0 16 12.5 28.5t28.5 12.5h101q15 0 26.5 -12t11.5 -29v-1044z" />
    <glyph glyph-name="afii10074" unicode="&#x438;" horiz-adv-x="1141" 
d="M1001 41q0 -17 -11 -29t-27 -12h-103q-16 0 -27.5 12t-11.5 29v39q-163 -94 -325 -94q-357 0 -357 426v673q0 17 12 29t29 12h99q16 0 28 -12t12 -29v-673q0 -145 49.5 -208t176.5 -63q116 0 276 80v864q0 16 12.5 28.5t28.5 12.5h101q15 0 26.5 -12t11.5 -29v-1044z" />
    <glyph glyph-name="afii10075" unicode="&#xe9;" horiz-adv-x="1141" 
d="M891 1595q23 0 23 -25q0 -56 -32.5 -127.5t-115 -121t-186.5 -49.5q-147 0 -241 90t-94 208q0 25 23 25h76q28 0 31 -32q8 -76 66 -120t139 -44q80 0 138 44t66 120q3 32 31 32h76zM1001 41q0 -17 -11 -29t-27 -12h-103q-16 0 -27.5 12t-11.5 29v39q-163 -94 -325 -94
q-357 0 -357 426v673q0 17 12 29t29 12h99q16 0 28 -12t12 -29v-673q0 -145 49.5 -208t176.5 -63q116 0 276 80v864q0 16 12.5 28.5t28.5 12.5h101q15 0 26.5 -12t11.5 -29v-1044z" />
    <glyph glyph-name="afii10075" unicode="&#x439;" horiz-adv-x="1141" 
d="M891 1595q23 0 23 -25q0 -56 -32.5 -127.5t-115 -121t-186.5 -49.5q-147 0 -241 90t-94 208q0 25 23 25h76q28 0 31 -32q8 -76 66 -120t139 -44q80 0 138 44t66 120q3 32 31 32h76zM1001 41q0 -17 -11 -29t-27 -12h-103q-16 0 -27.5 12t-11.5 29v39q-163 -94 -325 -94
q-357 0 -357 426v673q0 17 12 29t29 12h99q16 0 28 -12t12 -29v-673q0 -145 49.5 -208t176.5 -63q116 0 276 80v864q0 16 12.5 28.5t28.5 12.5h101q15 0 26.5 -12t11.5 -29v-1044z" />
    <glyph glyph-name="afii10076" unicode="&#xea;" horiz-adv-x="1016" 
d="M483 594l455 -549q6 -6 6 -18q0 -27 -22 -27h-148q-19 0 -27.5 6.5t-139.5 168.5l-288 355v-489q0 -17 -12 -29t-28 -12h-99q-17 0 -29 12t-12 29v1044q0 17 12 29t29 12h99q16 0 28 -12t12 -29v-438l419 471q8 8 32 8h143q31 0 31 -22q0 -11 -4 -16z" />
    <glyph glyph-name="afii10076" unicode="&#x43a;" horiz-adv-x="1016" 
d="M483 594l455 -549q6 -6 6 -18q0 -27 -22 -27h-148q-19 0 -27.5 6.5t-139.5 168.5l-288 355v-489q0 -17 -12 -29t-28 -12h-99q-17 0 -29 12t-12 29v1044q0 17 12 29t29 12h99q16 0 28 -12t12 -29v-438l419 471q8 8 32 8h143q31 0 31 -22q0 -11 -4 -16z" />
    <glyph glyph-name="afii10077" unicode="&#xeb;" horiz-adv-x="1102" 
d="M840 31l-248 911q-10 37 -39 37q-31 0 -41 -37l-248 -911q-7 -31 -37 -31h-121q-34 0 -34 33q0 7 2 14l270 938q46 156 209 156t207 -154l268 -940q2 -4 2 -14q0 -33 -35 -33h-121q-26 0 -34 31z" />
    <glyph glyph-name="afii10077" unicode="&#x43b;" horiz-adv-x="1102" 
d="M840 31l-248 911q-10 37 -39 37q-31 0 -41 -37l-248 -911q-7 -31 -37 -31h-121q-34 0 -34 33q0 7 2 14l270 938q46 156 209 156t207 -154l268 -940q2 -4 2 -14q0 -33 -35 -33h-121q-26 0 -34 31z" />
    <glyph glyph-name="afii10078" unicode="&#xec;" horiz-adv-x="1358" 
d="M1219 41q0 -17 -12.5 -29t-28.5 -12h-95q-16 0 -28.5 12t-12.5 29v862l-155 -285q-84 -152 -93 -164.5t-27.5 -21t-47.5 -8.5h-80q-23 0 -39 5t-27 15.5t-45 70.5l-213 388v-862q0 -17 -12 -29t-29 -12h-94q-17 0 -29 12t-12 29v1044q0 17 12 29t29 12h133q36 0 52 -12
q7 -6 81 -140l122 -221q99 -181 102.5 -187.5t7.5 -6.5t12 13l289 524q15 30 65 30h134q16 0 28.5 -12t12.5 -29v-1044z" />
    <glyph glyph-name="afii10078" unicode="&#x43c;" horiz-adv-x="1358" 
d="M1219 41q0 -17 -12.5 -29t-28.5 -12h-95q-16 0 -28.5 12t-12.5 29v862l-155 -285q-84 -152 -93 -164.5t-27.5 -21t-47.5 -8.5h-80q-23 0 -39 5t-27 15.5t-45 70.5l-213 388v-862q0 -17 -12 -29t-29 -12h-94q-17 0 -29 12t-12 29v1044q0 17 12 29t29 12h133q36 0 52 -12
q7 -6 81 -140l122 -221q99 -181 102.5 -187.5t7.5 -6.5t12 13l289 524q15 30 65 30h134q16 0 28.5 -12t12.5 -29v-1044z" />
    <glyph glyph-name="afii10079" unicode="&#xed;" horiz-adv-x="1182" 
d="M1042 41q0 -17 -12 -29t-29 -12h-98q-17 0 -29 12t-12 29v457h-543v-457q0 -17 -12 -29t-28 -12h-99q-17 0 -29 12t-12 29v1044q0 17 12 29t29 12h99q16 0 28 -12t12 -29v-434h543v434q0 17 12 29t29 12h98q17 0 29 -12t12 -29v-1044z" />
    <glyph glyph-name="afii10079" unicode="&#x43d;" horiz-adv-x="1182" 
d="M1042 41q0 -17 -12 -29t-29 -12h-98q-17 0 -29 12t-12 29v457h-543v-457q0 -17 -12 -29t-28 -12h-99q-17 0 -29 12t-12 29v1044q0 17 12 29t29 12h99q16 0 28 -12t12 -29v-434h543v434q0 17 12 29t29 12h98q17 0 29 -12t12 -29v-1044z" />
    <glyph glyph-name="afii10080" unicode="&#xee;" horiz-adv-x="1116" 
d="M1014 485q0 -234 -120 -366.5t-337 -132.5t-336 132t-119 367v156q0 231 117 365.5t338 134.5q217 0 337 -132.5t120 -367.5v-156zM834 485v156q0 342 -277 342q-274 0 -274 -342v-156q0 -342 274 -342q136 0 206.5 87.5t70.5 254.5z" />
    <glyph glyph-name="afii10080" unicode="&#x43e;" horiz-adv-x="1116" 
d="M1014 485q0 -234 -120 -366.5t-337 -132.5t-336 132t-119 367v156q0 231 117 365.5t338 134.5q217 0 337 -132.5t120 -367.5v-156zM834 485v156q0 342 -277 342q-274 0 -274 -342v-156q0 -342 274 -342q136 0 206.5 87.5t70.5 254.5z" />
    <glyph glyph-name="afii10081" unicode="&#xef;" horiz-adv-x="1182" 
d="M1042 893v-852q0 -17 -12 -29t-29 -12h-98q-17 0 -29 12t-12 29v852q0 46 -16 62t-62 16h-387q-46 0 -62 -16t-16 -62v-852q0 -17 -12 -29t-28 -12h-99q-17 0 -29 12t-12 29v852q0 107 41.5 158.5t94 63t122.5 11.5h387q71 0 123.5 -11.5t93.5 -63t41 -158.5z" />
    <glyph glyph-name="afii10081" unicode="&#x43f;" horiz-adv-x="1182" 
d="M1042 893v-852q0 -17 -12 -29t-29 -12h-98q-17 0 -29 12t-12 29v852q0 46 -16 62t-62 16h-387q-46 0 -62 -16t-16 -62v-852q0 -17 -12 -29t-28 -12h-99q-17 0 -29 12t-12 29v852q0 107 41.5 158.5t94 63t122.5 11.5h387q71 0 123.5 -11.5t93.5 -63t41 -158.5z" />
    <glyph glyph-name="afii10082" unicode="&#xf0;" horiz-adv-x="1108" 
d="M1006 487q0 -246 -113.5 -373.5t-333.5 -127.5q-111 0 -240 22v-370q0 -16 -11 -27.5t-27 -11.5h-105q-37 0 -37 39v1409q0 26 16 37t147 34t257 23q217 0 332 -131t115 -375v-148zM825 487v148q0 184 -65 269t-201 85q-120 0 -240 -20v-811q119 -21 240 -21
q137 0 201.5 83.5t64.5 266.5z" />
    <glyph glyph-name="afii10082" unicode="&#x440;" horiz-adv-x="1108" 
d="M1006 487q0 -246 -113.5 -373.5t-333.5 -127.5q-111 0 -240 22v-370q0 -16 -11 -27.5t-27 -11.5h-105q-37 0 -37 39v1409q0 26 16 37t147 34t257 23q217 0 332 -131t115 -375v-148zM825 487v148q0 184 -65 269t-201 85q-120 0 -240 -20v-811q119 -21 240 -21
q137 0 201.5 83.5t64.5 266.5z" />
    <glyph glyph-name="afii10083" unicode="&#xf1;" horiz-adv-x="926" 
d="M836 53q0 -34 -22 -41t-108 -16.5t-167 -9.5q-204 0 -320.5 133t-116.5 364v160q0 232 116 365t321 133q101 0 187 -12t98 -21.5t12 -34.5v-74q0 -30 -43 -30q-127 14 -254 14q-256 0 -256 -340v-160q0 -340 256 -340q111 0 181.5 7.5t77.5 7.5q38 0 38 -31v-74z" />
    <glyph glyph-name="afii10083" unicode="&#x441;" horiz-adv-x="926" 
d="M836 53q0 -34 -22 -41t-108 -16.5t-167 -9.5q-204 0 -320.5 133t-116.5 364v160q0 232 116 365t321 133q101 0 187 -12t98 -21.5t12 -34.5v-74q0 -30 -43 -30q-127 14 -254 14q-256 0 -256 -340v-160q0 -340 256 -340q111 0 181.5 7.5t77.5 7.5q38 0 38 -31v-74z" />
    <glyph glyph-name="afii10084" unicode="&#xf2;" horiz-adv-x="1081" 
d="M1010 1018q0 -17 -12 -29t-29 -12h-338v-936q0 -17 -12 -29t-29 -12h-98q-17 0 -29 12t-12 29v936h-338q-17 0 -29 12t-12 29v67q0 17 12 29t29 12h856q17 0 29 -12t12 -29v-67z" />
    <glyph glyph-name="afii10084" unicode="&#x442;" horiz-adv-x="1081" 
d="M1010 1018q0 -17 -12 -29t-29 -12h-338v-936q0 -17 -12 -29t-29 -12h-98q-17 0 -29 12t-12 29v936h-338q-17 0 -29 12t-12 29v67q0 17 12 29t29 12h856q17 0 29 -12t12 -29v-67z" />
    <glyph glyph-name="afii10085" unicode="&#xf3;" horiz-adv-x="1094" 
d="M1015 1077l-338 -1179q-54 -186 -134 -245t-241 -59q-58 0 -115.5 8.5t-78.5 17t-21 26.5v75q0 33 45 33q135 -12 182 -12q87 0 134 33.5t90 224.5h-29q-69 0 -100.5 37.5t-51.5 103.5l-272 936q-3 8 -3 16q0 33 38 33h112q26 0 35 -32l242 -889q11 -45 39 -45h33
l249 936q8 30 39 30h115q33 0 33 -34q0 -7 -2 -15z" />
    <glyph glyph-name="afii10085" unicode="&#x443;" horiz-adv-x="1094" 
d="M1015 1077l-338 -1179q-54 -186 -134 -245t-241 -59q-58 0 -115.5 8.5t-78.5 17t-21 26.5v75q0 33 45 33q135 -12 182 -12q87 0 134 33.5t90 224.5h-29q-69 0 -100.5 37.5t-51.5 103.5l-272 936q-3 8 -3 16q0 33 38 33h112q26 0 35 -32l242 -889q11 -45 39 -45h33
l249 936q8 30 39 30h115q33 0 33 -34q0 -7 -2 -15z" />
    <glyph glyph-name="afii10086" unicode="&#xf4;" horiz-adv-x="1700" 
d="M940 1499v-369q88 11 190 11q467 0 467 -506v-148q0 -245 -113.5 -373t-332.5 -128q-67 0 -211 16v-364q0 -16 -11 -27.5t-28 -11.5h-104q-37 0 -37 39v364q-148 -16 -211 -16q-219 0 -333 128t-114 373v148q0 506 467 506q102 0 191 -11v369q0 17 12 29t29 12h98
q17 0 29 -12t12 -29zM940 152q126 -15 211 -15q137 0 201.5 83.5t64.5 266.5v148q0 189 -68.5 271.5t-213.5 82.5q-105 0 -195 -10v-827zM760 979q-94 10 -195 10q-145 0 -213.5 -82.5t-68.5 -271.5v-148q0 -183 64.5 -266.5t201.5 -83.5q82 0 211 15v827z" />
    <glyph glyph-name="afii10086" unicode="&#x444;" horiz-adv-x="1700" 
d="M940 1499v-369q88 11 190 11q467 0 467 -506v-148q0 -245 -113.5 -373t-332.5 -128q-67 0 -211 16v-364q0 -16 -11 -27.5t-28 -11.5h-104q-37 0 -37 39v364q-148 -16 -211 -16q-219 0 -333 128t-114 373v148q0 506 467 506q102 0 191 -11v369q0 17 12 29t29 12h98
q17 0 29 -12t12 -29zM940 152q126 -15 211 -15q137 0 201.5 83.5t64.5 266.5v148q0 189 -68.5 271.5t-213.5 82.5q-105 0 -195 -10v-827zM760 979q-94 10 -195 10q-145 0 -213.5 -82.5t-68.5 -271.5v-148q0 -183 64.5 -266.5t201.5 -83.5q82 0 211 15v827z" />
    <glyph glyph-name="afii10087" unicode="&#xf5;" horiz-adv-x="1120" 
d="M1048 47q9 -13 9 -25q0 -22 -27 -22h-141q-13 0 -18.5 4t-98.5 142l-205 298l-256 -370q-41 -60 -46 -67t-26 -7h-123q-24 0 -24 20q0 12 8 24l371 529l-238 344q-114 163 -117 170.5t-3 14.5q0 24 30 24h133q16 0 24 -7t96 -138l181 -268q263 386 273 399.5t32 13.5h119
q27 0 27 -23q0 -14 -9 -26l-345 -491z" />
    <glyph glyph-name="afii10087" unicode="&#x445;" horiz-adv-x="1120" 
d="M1048 47q9 -13 9 -25q0 -22 -27 -22h-141q-13 0 -18.5 4t-98.5 142l-205 298l-256 -370q-41 -60 -46 -67t-26 -7h-123q-24 0 -24 20q0 12 8 24l371 529l-238 344q-114 163 -117 170.5t-3 14.5q0 24 30 24h133q16 0 24 -7t96 -138l181 -268q263 386 273 399.5t32 13.5h119
q27 0 27 -23q0 -14 -9 -26l-345 -491z" />
    <glyph glyph-name="afii10088" unicode="&#xf6;" horiz-adv-x="1196" 
d="M862 233v852q0 17 12 29t29 12h98q17 0 29 -12t12 -29v-854q0 -42 -8 -75h80q17 0 29 -11.5t12 -27.5v-299q0 -17 -12 -29t-29 -12h-96q-17 0 -29 12t-12 29v182h-580q-70 0 -122.5 12t-94 63t-41.5 158v852q0 17 12 29t29 12h99q16 0 28 -12t12 -29v-852q0 -46 16 -61.5
t62 -15.5h387q47 0 62.5 15.5t15.5 61.5z" />
    <glyph glyph-name="afii10088" unicode="&#x446;" horiz-adv-x="1196" 
d="M862 233v852q0 17 12 29t29 12h98q17 0 29 -12t12 -29v-854q0 -42 -8 -75h80q17 0 29 -11.5t12 -27.5v-299q0 -17 -12 -29t-29 -12h-96q-17 0 -29 12t-12 29v182h-580q-70 0 -122.5 12t-94 63t-41.5 158v852q0 17 12 29t29 12h99q16 0 28 -12t12 -29v-852q0 -46 16 -61.5
t62 -15.5h387q47 0 62.5 15.5t15.5 61.5z" />
    <glyph glyph-name="afii10089" unicode="&#xf7;" horiz-adv-x="1116" 
d="M977 41q0 -17 -12 -29t-29 -12h-98q-17 0 -29 12t-12 29v420q-162 -27 -299 -27q-209 0 -302.5 81.5t-93.5 246.5v323q0 17 12 29t29 12h99q16 0 28.5 -12t12.5 -29v-323q0 -106 52.5 -144t199.5 -38q119 0 262 22v483q0 17 12 29t29 12h98q17 0 29 -12t12 -29v-1044z
" />
    <glyph glyph-name="afii10089" unicode="&#x447;" horiz-adv-x="1116" 
d="M977 41q0 -17 -12 -29t-29 -12h-98q-17 0 -29 12t-12 29v420q-162 -27 -299 -27q-209 0 -302.5 81.5t-93.5 246.5v323q0 17 12 29t29 12h99q16 0 28.5 -12t12.5 -29v-323q0 -106 52.5 -144t199.5 -38q119 0 262 22v483q0 17 12 29t29 12h98q17 0 29 -12t12 -29v-1044z
" />
    <glyph glyph-name="afii10090" unicode="&#xf8;" horiz-adv-x="1659" 
d="M1520 233q0 -107 -41.5 -158t-94 -63t-122.5 -12h-865q-70 0 -122.5 12t-94 63t-41.5 158v852q0 17 12 29t29 12h99q16 0 28 -12t12 -29v-852q0 -46 16 -61.5t62 -15.5h342v929q0 17 12 29t29 12h99q16 0 28.5 -12t12.5 -29v-929h342q46 0 61.5 15.5t15.5 61.5v852
q0 17 12.5 29t28.5 12h99q17 0 29 -12t12 -29v-852z" />
    <glyph glyph-name="afii10090" unicode="&#x448;" horiz-adv-x="1659" 
d="M1520 233q0 -107 -41.5 -158t-94 -63t-122.5 -12h-865q-70 0 -122.5 12t-94 63t-41.5 158v852q0 17 12 29t29 12h99q16 0 28 -12t12 -29v-852q0 -46 16 -61.5t62 -15.5h342v929q0 17 12 29t29 12h99q16 0 28.5 -12t12.5 -29v-929h342q46 0 61.5 15.5t15.5 61.5v852
q0 17 12.5 29t28.5 12h99q17 0 29 -12t12 -29v-852z" />
    <glyph glyph-name="afii10091" unicode="&#xf9;" horiz-adv-x="1683" 
d="M1520 231q0 -53 -9 -75h80q17 0 29 -11.5t12 -27.5v-299q0 -17 -12 -29t-29 -12h-96q-17 0 -29 12t-12 29v182h-1057q-70 0 -122.5 12t-94 63t-41.5 158v852q0 17 12 29t29 12h99q16 0 28 -12t12 -29v-852q0 -46 16 -61.5t62 -15.5h342v929q0 17 12 29t29 12h99
q16 0 28.5 -12t12.5 -29v-929h342q46 0 61.5 15.5t15.5 61.5v852q0 17 12.5 29t28.5 12h99q17 0 29 -12t12 -29v-854z" />
    <glyph glyph-name="afii10091" unicode="&#x449;" horiz-adv-x="1683" 
d="M1520 231q0 -53 -9 -75h80q17 0 29 -11.5t12 -27.5v-299q0 -17 -12 -29t-29 -12h-96q-17 0 -29 12t-12 29v182h-1057q-70 0 -122.5 12t-94 63t-41.5 158v852q0 17 12 29t29 12h99q16 0 28 -12t12 -29v-852q0 -46 16 -61.5t62 -15.5h342v929q0 17 12 29t29 12h99
q16 0 28.5 -12t12.5 -29v-929h342q46 0 61.5 15.5t15.5 61.5v852q0 17 12.5 29t28.5 12h99q17 0 29 -12t12 -29v-854z" />
    <glyph glyph-name="afii10092" unicode="&#xfa;" horiz-adv-x="1219" 
d="M1137 330q0 -344 -519 -344q-110 0 -225 5t-131 20.5t-16 43.5v916h-174q-17 0 -29 12t-12 29v73q0 17 12 29t29 12h313q17 0 29 -12t12 -29v-399q117 4 192 4q519 0 519 -344v-16zM954 330v16q0 97 -82 143t-260 46l-186 -7v-381l186 -6q178 0 260 46t82 143z" />
    <glyph glyph-name="afii10092" unicode="&#x44a;" horiz-adv-x="1219" 
d="M1137 330q0 -344 -519 -344q-110 0 -225 5t-131 20.5t-16 43.5v916h-174q-17 0 -29 12t-12 29v73q0 17 12 29t29 12h313q17 0 29 -12t12 -29v-399q117 4 192 4q519 0 519 -344v-16zM954 330v16q0 97 -82 143t-260 46l-186 -7v-381l186 -6q178 0 260 46t82 143z" />
    <glyph glyph-name="afii10093" unicode="&#xfb;" horiz-adv-x="1530" 
d="M1370 41q0 -17 -12 -29t-29 -12h-98q-17 0 -29 12t-12 29v1044q0 17 12 29t29 12h98q17 0 29 -12t12 -29v-1044zM1030 330q0 -344 -518 -344q-110 0 -225 5t-131.5 20.5t-16.5 43.5v1030q0 17 12 29t29 12h99q16 0 28 -12t12 -29v-399q117 4 193 4q518 0 518 -344v-16z
M848 330v16q0 97 -82.5 143t-259.5 46l-187 -7v-381l187 -6q177 0 259.5 46t82.5 143z" />
    <glyph glyph-name="afii10093" unicode="&#x44b;" horiz-adv-x="1530" 
d="M1370 41q0 -17 -12 -29t-29 -12h-98q-17 0 -29 12t-12 29v1044q0 17 12 29t29 12h98q17 0 29 -12t12 -29v-1044zM1030 330q0 -344 -518 -344q-110 0 -225 5t-131.5 20.5t-16.5 43.5v1030q0 17 12 29t29 12h99q16 0 28 -12t12 -29v-399q117 4 193 4q518 0 518 -344v-16z
M848 330v16q0 97 -82.5 143t-259.5 46l-187 -7v-381l187 -6q177 0 259.5 46t82.5 143z" />
    <glyph glyph-name="afii10094" unicode="&#xfc;" horiz-adv-x="1112" 
d="M1030 330q0 -344 -518 -344q-110 0 -225 5t-131.5 20.5t-16.5 43.5v1030q0 17 12 29t29 12h99q16 0 28 -12t12 -29v-399q117 4 193 4q518 0 518 -344v-16zM848 330v16q0 97 -82.5 143t-259.5 46l-187 -7v-381l187 -6q177 0 259.5 46t82.5 143z" />
    <glyph glyph-name="afii10094" unicode="&#x44c;" horiz-adv-x="1112" 
d="M1030 330q0 -344 -518 -344q-110 0 -225 5t-131.5 20.5t-16.5 43.5v1030q0 17 12 29t29 12h99q16 0 28 -12t12 -29v-399q117 4 193 4q518 0 518 -344v-16zM848 330v16q0 97 -82.5 143t-259.5 46l-187 -7v-381l187 -6q177 0 259.5 46t82.5 143z" />
    <glyph glyph-name="afii10095" unicode="&#xfd;" horiz-adv-x="926" 
d="M90 53v74q0 31 36 31l117 -9q68 -6 130 -6q270 0 270 340v13h-424q-17 0 -29 12t-12 29v71q0 17 12 29t29 12h424q-3 334 -270 334q-114 0 -240 -14q-43 0 -43 30v74q0 25 12 34.5t98 21.5t187 12q216 0 326 -132.5t110 -365.5v-160q0 -236 -113.5 -366.5t-322.5 -130.5
q-82 0 -167.5 9.5t-107.5 16.5t-22 41z" />
    <glyph glyph-name="afii10095" unicode="&#x44d;" horiz-adv-x="926" 
d="M90 53v74q0 31 36 31l117 -9q68 -6 130 -6q270 0 270 340v13h-424q-17 0 -29 12t-12 29v71q0 17 12 29t29 12h424q-3 334 -270 334q-114 0 -240 -14q-43 0 -43 30v74q0 25 12 34.5t98 21.5t187 12q216 0 326 -132.5t110 -365.5v-160q0 -236 -113.5 -366.5t-322.5 -130.5
q-82 0 -167.5 9.5t-107.5 16.5t-22 41z" />
    <glyph glyph-name="afii10096" unicode="&#xfe;" horiz-adv-x="1581" 
d="M1479 485q0 -234 -120 -366.5t-337 -132.5t-336 132t-119 367v15h-248v-459q0 -17 -12 -29t-28 -12h-99q-17 0 -29 12t-12 29v1044q0 17 12 29t29 12h99q16 0 28 -12t12 -29v-436h248q2 232 121 362t334 130q217 0 337 -132.5t120 -367.5v-156zM1298 485v156
q0 342 -276 342q-274 0 -274 -342v-156q0 -342 274 -342q136 0 206 87.5t70 254.5z" />
    <glyph glyph-name="afii10096" unicode="&#x44e;" horiz-adv-x="1581" 
d="M1479 485q0 -234 -120 -366.5t-337 -132.5t-336 132t-119 367v15h-248v-459q0 -17 -12 -29t-28 -12h-99q-17 0 -29 12t-12 29v1044q0 17 12 29t29 12h99q16 0 28 -12t12 -29v-436h248q2 232 121 362t334 130q217 0 337 -132.5t120 -367.5v-156zM1298 485v156
q0 342 -276 342q-274 0 -274 -342v-156q0 -342 274 -342q136 0 206 87.5t70 254.5z" />
    <glyph glyph-name="afii10097" unicode="&#xff;" horiz-adv-x="1104" 
d="M971 41q0 -17 -12.5 -29t-28.5 -12h-99q-16 0 -28.5 12t-12.5 29v420q-87 -4 -147 -4h-41l-195 -276q-112 -159 -118 -166.5t-17 -11t-28 -3.5h-113q-33 0 -33 30q0 10 2 14l314 433q-129 30 -199 114.5t-70 205.5v10q0 334 498 334q93 0 193 -5.5t117.5 -15.5t17.5 -35
v-1044zM790 606v383q-41 4 -147 4q-173 0 -247.5 -43.5t-74.5 -142.5v-10q0 -105 72 -150t250 -45q16 0 147 4z" />
    <glyph glyph-name="afii10097" unicode="&#x44f;" horiz-adv-x="1104" 
d="M971 41q0 -17 -12.5 -29t-28.5 -12h-99q-16 0 -28.5 12t-12.5 29v420q-87 -4 -147 -4h-41l-195 -276q-112 -159 -118 -166.5t-17 -11t-28 -3.5h-113q-33 0 -33 30q0 10 2 14l314 433q-129 30 -199 114.5t-70 205.5v10q0 334 498 334q93 0 193 -5.5t117.5 -15.5t17.5 -35
v-1044zM790 606v383q-41 4 -147 4q-173 0 -247.5 -43.5t-74.5 -142.5v-10q0 -105 72 -150t250 -45q16 0 147 4z" />
    <glyph glyph-name="Euro" unicode="&#x2c6;" 
d="M1135 53q0 -18 -12 -28t-29 -13q-32 -6 -59.5 -11t-61 -8t-77.5 -5t-110 -2q-60 0 -123.5 11.5t-124.5 37t-116.5 68t-99 104t-72 145t-35.5 191.5h-68q-17 0 -29 12t-12 29v57q0 17 12 29t29 12h66v166h-66q-17 0 -29 12t-12 29v57q0 17 12 29t29 12h68
q8 107 36.5 189.5t72.5 143.5t99.5 102.5t116 66.5t124 36t122.5 11q48 0 90.5 -3t80.5 -8t72.5 -10.5t68.5 -11.5q14 -2 23 -7t9 -19v-105q0 -9 -4.5 -15.5t-19.5 -6.5h-6q-56 5 -139 11.5t-173 6.5q-69 0 -134 -19t-117.5 -63.5t-88 -117.5t-45.5 -181h594q16 0 25.5 -9.5
t9.5 -23.5q0 -2 -1 -4t-1 -4l-14 -57q-5 -17 -14.5 -29t-26.5 -12h-576v-166h527q14 0 22 -8.5t8 -22.5q0 -2 -1 -4.5t-1 -5.5l-14 -57q-5 -17 -14.5 -29t-26.5 -12h-498q9 -109 44.5 -183.5t88.5 -120t118.5 -65.5t135.5 -20q90 0 170 5.5t136 10.5h8q33 0 33 -33v-84v0z
" />
    <glyph glyph-name="mu" unicode="&#x3bc;" horiz-adv-x="1141" 
d="M1001 90q0 -15 -9 -28t-29 -19q-36 -13 -80 -23.5t-93 -18t-101.5 -11.5t-104.5 -4q-162 0 -265 59v-405q0 -17 -11.5 -29t-28.5 -12h-99q-17 0 -29 12t-12 29v1445q0 16 11 28.5t28 12.5h103q15 0 26.5 -12t11.5 -29v-673q0 -143 64 -208t201 -65q62 0 125.5 7.5
t111.5 21.5v917q0 16 12 28.5t29 12.5h101q15 0 26.5 -12t11.5 -29v-995v0z" />
    <glyph glyph-name="endash" unicode="&#x2013;" horiz-adv-x="635" 
d="M666 539q0 -35 -39 -35h-619q-39 0 -39 35v79q0 37 39 37h619q39 0 39 -37v-79z" />
    <glyph glyph-name="emdash" unicode="&#x2014;" horiz-adv-x="1229" 
d="M1260 539q0 -35 -39 -35h-1213q-39 0 -39 35v79q0 37 39 37h1213q39 0 39 -37v-79z" />
    <glyph glyph-name="quoteleft" unicode="&#x2018;" horiz-adv-x="381" 
d="M303 1540q19 0 19 -20q0 -8 -16 -90l-40 -200q-23 -119 -26 -129.5t-13 -18t-24 -7.5h-121q-23 0 -23 23q0 10 41 136l67 207q26 82 34 90.5t24 8.5h78z" />
    <glyph glyph-name="quoteright" unicode="&#x2019;" horiz-adv-x="381" 
d="M322 1518q0 -4 -0.5 -8t-2.5 -9l-124 -387q-7 -22 -15.5 -30.5t-23.5 -8.5h-78q-11 0 -15 5.5t-4 15.5v9t2 9l76 387q5 22 15.5 30.5t25.5 8.5h121q23 0 23 -22z" />
    <glyph glyph-name="quotesinglbase" unicode="&#x201a;" horiz-adv-x="381" 
d="M346 242q0 -3 -1 -7.5t-3 -9.5l-154 -387q-8 -20 -14.5 -29.5t-23.5 -9.5h-84q-13 0 -19 7t-6 18v7t2 7l117 387q6 20 15 29.5t26 9.5h118q27 0 27 -22z" />
    <glyph glyph-name="quotedblleft" unicode="&#x201c;" horiz-adv-x="688" 
d="M610 1540q19 0 19 -20q0 -8 -16 -90l-39 -200q-24 -119 -27 -129.5t-12.5 -18t-24.5 -7.5h-121q-22 0 -22 23q0 10 40 136l67 207q27 82 34.5 90.5t23.5 8.5h78zM303 1540q19 0 19 -20q0 -8 -16 -90l-40 -200q-23 -119 -26 -129.5t-13 -18t-24 -7.5h-121q-23 0 -23 23
q0 10 41 136l67 207q26 82 34 90.5t24 8.5h78z" />
    <glyph glyph-name="quotedblright" unicode="&#x201d;" horiz-adv-x="688" 
d="M606 1540q23 0 23 -22q0 -10 -41 -136l-67 -208q-26 -82 -34 -90.5t-24 -8.5h-78q-18 0 -18 21q0 8 15 89l40 200q23 119 26 129.5t13 18t24 7.5h121zM299 1540q23 0 23 -22q0 -10 -41 -136l-67 -208q-26 -82 -34 -90.5t-24 -8.5h-78q-19 0 -19 21q0 8 16 89l40 200
q23 119 26 129.5t13 18t24 7.5h121z" />
    <glyph glyph-name="quotedblbase" unicode="&#x201e;" horiz-adv-x="688" 
d="M715 242q0 -3 -1 -7.5t-3 -9.5l-154 -387q-8 -20 -15 -29.5t-24 -9.5h-84q-12 0 -18 7t-6 18v7t2 7l116 387q7 20 15.5 29.5t25.5 9.5h119q27 0 27 -22zM346 242q0 -3 -1 -7.5t-3 -9.5l-154 -387q-8 -20 -14.5 -29.5t-23.5 -9.5h-84q-13 0 -19 7t-6 18v7t2 7l117 387
q6 20 15 29.5t26 9.5h118q27 0 27 -22z" />
    <glyph glyph-name="dagger" unicode="&#x2020;" horiz-adv-x="827" 
d="M752 1014q0 -16 -11 -24.5t-28 -8.5h-224v-940q0 -17 -7.5 -29t-24.5 -12h-117q-17 0 -25 12t-8 29v940h-192q-17 0 -28 8.5t-11 24.5v92q0 15 11 23t28 8h192v364q0 16 9 27.5t26 11.5h115q15 0 23.5 -11.5t8.5 -27.5v-364h224q17 0 28 -8t11 -23v-92v0z" />
    <glyph glyph-name="daggerdbl" unicode="&#x2021;" horiz-adv-x="827" 
d="M752 584q0 -16 -11 -24.5t-28 -8.5h-224v-510q0 -17 -7.5 -29t-24.5 -12h-117q-17 0 -25 12t-8 29v510h-192q-17 0 -28 8.5t-11 24.5v92q0 15 11 23t28 8h192v274h-192q-17 0 -28 8.5t-11 24.5v92q0 15 11 23t28 8h192v364q0 16 9 27.5t26 11.5h115q15 0 23.5 -11.5
t8.5 -27.5v-364h224q17 0 28 -8t11 -23v-92q0 -16 -11 -24.5t-28 -8.5h-224v-274h224q17 0 28 -8t11 -23v-92v0z" />
    <glyph glyph-name="bullet" unicode="&#x2022;" horiz-adv-x="856" 
d="M428 1077q135 0 230.5 -95.5t95.5 -229.5q0 -136 -95.5 -231t-230.5 -95q-134 0 -230 95.5t-96 230.5q0 134 96 229.5t230 95.5z" />
    <glyph glyph-name="ellipsis" unicode="&#x2026;" horiz-adv-x="1241" 
d="M1122 39q0 -17 -11.5 -28t-27.5 -11h-98q-15 0 -28 11t-13 28v192q0 16 13 27.5t28 11.5h98q16 0 27.5 -11.5t11.5 -27.5v-192zM711 39q0 -17 -13 -28t-28 -11h-99q-15 0 -27 11t-12 28v192q0 16 12 27.5t27 11.5h99q15 0 28 -11.5t13 -27.5v-192zM297 39
q0 -17 -11.5 -28t-27.5 -11h-98q-16 0 -28.5 11t-12.5 28v192q0 16 12.5 27.5t28.5 11.5h98q16 0 27.5 -11.5t11.5 -27.5v-192z" />
    <glyph glyph-name="perthousand" unicode="&#x2030;" horiz-adv-x="2322" 
d="M2230 317q0 -167 -72.5 -249t-201.5 -82t-203 82t-74 249v191q0 169 74 250.5t203 81.5t201.5 -81.5t72.5 -250.5v-191zM1534 317q0 -167 -72.5 -249t-201.5 -82q-130 0 -203.5 82t-73.5 249v191q0 169 73.5 250.5t203.5 81.5q129 0 201.5 -81.5t72.5 -250.5v-191z
M1331 1509q0 -5 -2.5 -11t-7.5 -15l-856 -1450q-12 -22 -21 -31.5t-24 -9.5h-107q-16 0 -16 12t10 29l856 1450q14 23 23 31t24 8h105q16 0 16 -13zM643 1016q0 -167 -72.5 -249.5t-201.5 -82.5t-203 82.5t-74 249.5v190q0 169 74 249.5t203 80.5t201.5 -80.5t72.5 -249.5
v-190zM2103 508q0 117 -39 166t-108 49t-109.5 -49t-40.5 -166v-191q0 -116 40.5 -165.5t109.5 -49.5t108 49.5t39 165.5v191zM1407 508q0 117 -39 166t-108 49q-70 0 -110 -49t-40 -166v-191q0 -116 40 -165.5t110 -49.5q69 0 108 49.5t39 165.5v191zM516 1206
q0 117 -39 166t-108 49q-70 0 -110 -49t-40 -166v-190q0 -117 40 -166t110 -49q69 0 108 49t39 166v190z" />
    <glyph glyph-name="guilsinglleft" unicode="&#x2039;" horiz-adv-x="725" 
d="M614 162q0 -8 -5.5 -13.5t-16.5 -5.5h-119q-12 0 -21.5 4t-21.5 17l-346 346q-11 11 -17 28t-6 29q0 13 6 30t17 28l346 346q12 12 21.5 16t21.5 4h119q11 0 16.5 -5t5.5 -13q0 -15 -12 -27l-364 -379l364 -379q12 -12 12 -26z" />
    <glyph glyph-name="guilsinglright" unicode="&#x203a;" horiz-adv-x="725" 
d="M664 567q0 -12 -6 -29t-17 -28l-346 -346q-12 -13 -21.5 -17t-21.5 -4h-119q-11 0 -16.5 5.5t-5.5 13.5q0 14 12 26l364 379l-364 379q-12 12 -12 27q0 8 5.5 13t16.5 5h119q12 0 21.5 -4t21.5 -16l346 -346q11 -11 17 -28t6 -30z" />
    <glyph glyph-name="trademark" unicode="&#x2122;" horiz-adv-x="1618" 
d="M1530 709q0 -21 -21 -21h-84q-20 0 -20 21v491q0 61 -6 101.5t-28 65t-65 34.5t-116 10v-702q0 -21 -21 -21h-86q-20 0 -20 21v702q-65 0 -119.5 -3.5t-97.5 -8.5v-690q0 -21 -19 -21h-84q-20 0 -20 21v759q0 20 7 28.5t24 10.5q89 10 182.5 15.5t189.5 5.5
q106 0 182.5 -12.5t125.5 -48t72.5 -99.5t23.5 -168v-491zM649 1440q0 -16 -11 -22.5t-24 -6.5h-198v-690q0 -12 -9.5 -22.5t-23.5 -10.5h-66q-14 0 -22 10.5t-8 22.5v690h-203q-12 0 -22.5 6.5t-10.5 22.5v51q0 14 10.5 22.5t22.5 8.5h530q13 0 24 -8.5t11 -22.5v-51z" />
    <glyph glyph-name="periodcentered" unicode="&#x2219;" horiz-adv-x="438" 
d="M307 707q0 -17 -11 -29t-28 -12h-98q-15 0 -27 12t-12 29v190q0 16 11 27.5t28 11.5h98q16 0 27.5 -11t11.5 -28v-190v0z" />
    <glyph glyph-name="NULL" horiz-adv-x="0" 
 />
    </font>
</defs>
</svg>
